<svg width="36" height="36" viewBox="0 0 36 36" fill="none" xmlns="http://www.w3.org/2000/svg">
<path d="M28.125 9V23.625C28.125 23.9234 28.0065 24.2095 27.7955 24.4205C27.5845 24.6315 27.2984 24.75 27 24.75C26.7016 24.75 26.4155 24.6315 26.2045 24.4205C25.9935 24.2095 25.875 23.9234 25.875 23.625V11.7155L9.79595 27.7959C9.58486 28.007 9.29855 28.1256 9.00002 28.1256C8.70148 28.1256 8.41517 28.007 8.20408 27.7959C7.99298 27.5848 7.87439 27.2985 7.87439 27C7.87439 26.7015 7.99298 26.4152 8.20408 26.2041L24.2845 10.125H12.375C12.0766 10.125 11.7905 10.0065 11.5795 9.79549C11.3685 9.58452 11.25 9.29837 11.25 9C11.25 8.70163 11.3685 8.41548 11.5795 8.20451C11.7905 7.99353 12.0766 7.875 12.375 7.875H27C27.2984 7.875 27.5845 7.99353 27.7955 8.20451C28.0065 8.41548 28.125 8.70163 28.125 9Z" fill="#000"/>
</svg>
