<svg width="29" height="28" viewBox="0 0 29 28" fill="none" xmlns="http://www.w3.org/2000/svg">
<path d="M14.9375 2.625C12.0377 2.62818 9.25753 3.78155 7.20704 5.83204C5.15655 7.88253 4.00318 10.6627 4 13.5625V22.75C4 23.2141 4.18437 23.6592 4.51256 23.9874C4.84075 24.3156 5.28587 24.5 5.75 24.5H14.9375C17.8383 24.5 20.6203 23.3477 22.6715 21.2965C24.7227 19.2453 25.875 16.4633 25.875 13.5625C25.875 10.6617 24.7227 7.8797 22.6715 5.82852C20.6203 3.77734 17.8383 2.625 14.9375 2.625ZM14.9375 22.75H5.75V13.5625C5.75 11.7454 6.28884 9.96908 7.29837 8.4582C8.30791 6.94732 9.7428 5.76974 11.4216 5.07436C13.1004 4.37898 14.9477 4.19703 16.7299 4.55154C18.5121 4.90604 20.1491 5.78106 21.434 7.06596C22.7189 8.35085 23.594 9.98791 23.9485 11.7701C24.303 13.5523 24.121 15.3996 23.4256 17.0784C22.7303 18.7572 21.5527 20.1921 20.0418 21.2016C18.5309 22.2112 16.7546 22.75 14.9375 22.75Z" fill="white"/>
</svg>
