<svg width="28" height="28" viewBox="0 0 28 28" fill="none" xmlns="http://www.w3.org/2000/svg">
<path d="M17.5 4.375C15.7125 4.37637 13.9606 4.87499 12.4402 5.8151C10.9199 6.7552 9.69102 8.09972 8.8911 9.69828C7.9395 9.5595 6.9695 9.61828 6.04162 9.87096C5.11373 10.1236 4.24787 10.5648 3.49803 11.1669C2.74819 11.7691 2.13046 12.5192 1.68337 13.3707C1.23628 14.2221 0.969425 15.1565 0.899447 16.1156C0.82947 17.0748 0.957871 18.038 1.27664 18.9453C1.59541 19.8526 2.09771 20.6845 2.75222 21.3891C3.40672 22.0937 4.19938 22.6559 5.08076 23.0406C5.96214 23.4252 6.91334 23.6242 7.87501 23.625H17.5C20.0527 23.625 22.5009 22.6109 24.3059 20.8059C26.111 19.0009 27.125 16.5527 27.125 14C27.125 11.4473 26.111 8.99914 24.3059 7.1941C22.5009 5.38906 20.0527 4.375 17.5 4.375ZM17.5 21.875H7.87501C6.48262 21.875 5.14727 21.3219 4.1627 20.3373C3.17813 19.3527 2.62501 18.0174 2.62501 16.625C2.62501 15.2326 3.17813 13.8973 4.1627 12.9127C5.14727 11.9281 6.48262 11.375 7.87501 11.375C7.99532 11.375 8.11564 11.375 8.23485 11.387C7.99557 12.2374 7.87448 13.1166 7.87501 14C7.87501 14.2321 7.9672 14.4546 8.13129 14.6187C8.29539 14.7828 8.51795 14.875 8.75001 14.875C8.98208 14.875 9.20463 14.7828 9.36873 14.6187C9.53282 14.4546 9.62501 14.2321 9.62501 14C9.62501 12.4425 10.0869 10.9199 10.9522 9.62488C11.8175 8.32985 13.0474 7.32049 14.4864 6.72445C15.9253 6.12841 17.5087 5.97246 19.0363 6.27632C20.5639 6.58017 21.9671 7.3302 23.0685 8.43153C24.1698 9.53287 24.9198 10.9361 25.2237 12.4637C25.5276 13.9913 25.3716 15.5747 24.7756 17.0136C24.1795 18.4526 23.1702 19.6825 21.8751 20.5478C20.5801 21.4131 19.0575 21.875 17.5 21.875Z" fill="#2B64BA"/>
</svg>
