<svg width="28" height="28" viewBox="0 0 28 28" fill="none" xmlns="http://www.w3.org/2000/svg">
<path d="M23.1503 18.1059C24.6269 17.4672 25.375 15.7905 25.375 13.125C25.375 10.4595 24.6269 8.78281 23.1503 8.14297C21.8761 7.59609 20.1709 7.89906 18.0687 9.05625C19.2259 6.95406 19.5333 5.24891 18.982 3.97469C18.3422 2.49813 16.6655 1.75 14 1.75C11.3345 1.75 9.65781 2.49813 9.01797 3.97469C8.47109 5.24891 8.77406 6.95406 9.93125 9.05516C7.82906 7.89906 6.125 7.59062 4.84969 8.14297C3.37313 8.78281 2.625 10.4595 2.625 13.125C2.625 15.7905 3.37313 17.4672 4.84969 18.1059C5.28052 18.2887 5.74453 18.3803 6.2125 18.375C7.2625 18.375 8.50938 17.9791 9.93125 17.1948C8.77406 19.2948 8.46672 21 9.01797 22.2742C9.65781 23.7508 11.3345 24.5 14 24.5C16.6655 24.5 18.3422 23.7508 18.982 22.2742C19.1967 21.7555 19.2845 21.193 19.238 20.6336C20.3809 22.4087 21.3861 24.4048 21.9013 26.4666C21.9494 26.655 22.059 26.8221 22.2127 26.9414C22.3664 27.0606 22.5555 27.1252 22.75 27.125C22.8219 27.1249 22.8935 27.1161 22.9633 27.0987C23.1884 27.0424 23.3819 26.899 23.5012 26.7001C23.6206 26.5011 23.6561 26.2629 23.5998 26.0378C22.8408 23.0016 21.1641 20.1534 19.4589 17.8577C20.3171 18.2026 21.0933 18.375 21.7875 18.375C22.2555 18.3803 22.7195 18.2887 23.1503 18.1059ZM22.4536 9.74969C23.4216 10.1719 23.625 11.8125 23.625 13.125C23.625 14.4375 23.4216 16.0781 22.4547 16.5003C21.5403 16.8973 19.8822 16.357 17.7866 14.9789C16.9295 14.4073 16.1064 13.7865 15.3212 13.1195C17.3348 11.4155 20.825 9.04313 22.4536 9.74969ZM10.6247 4.67031C11.0469 3.70344 12.6875 3.5 14 3.5C15.3125 3.5 16.9531 3.70344 17.3753 4.67031C17.7723 5.58469 17.232 7.24281 15.8539 9.33844C15.2823 10.1955 14.6615 11.0186 13.9945 11.8038C12.2905 9.79016 9.91922 6.29891 10.6247 4.67031ZM5.54641 16.5003C4.57844 16.0781 4.375 14.4375 4.375 13.125C4.375 11.8125 4.57844 10.1719 5.54531 9.74969C5.76394 9.66105 5.99855 9.6186 6.23438 9.625C7.19141 9.625 8.56844 10.1905 10.2156 11.2733C11.0727 11.8449 11.8958 12.4657 12.6809 13.1327C10.6652 14.8334 7.17391 17.2069 5.54641 16.5003ZM17.3753 21.5786C16.9531 22.5466 15.3125 22.75 14 22.75C12.6875 22.75 11.0469 22.5466 10.6247 21.5797C10.2277 20.6653 10.768 19.0072 12.1461 16.9116C12.7177 16.0545 13.3385 15.2314 14.0055 14.4462C15.7095 16.4598 18.0808 19.9511 17.3753 21.5786Z" fill="#2B64BA"/>
</svg>
