<svg width="24" height="25" viewBox="0 0 24 25" fill="none" xmlns="http://www.w3.org/2000/svg">
<path d="M18.6103 5.75844C17.4787 3.81875 15.93 2.75 14.25 2.75H9.75C8.07 2.75 6.52125 3.81875 5.38969 5.75844C4.33219 7.57062 3.75 9.96875 3.75 12.5C3.75 15.0312 4.33219 17.4294 5.38969 19.2416C6.52125 21.1812 8.07 22.25 9.75 22.25H14.25C15.93 22.25 17.4787 21.1812 18.6103 19.2416C19.6678 17.4294 20.25 15.0312 20.25 12.5C20.25 9.96875 19.6678 7.57062 18.6103 5.75844ZM18.7303 11.75H15.7303C15.6717 10.211 15.3653 8.69145 14.8228 7.25H17.6906C18.2644 8.50437 18.6431 10.0625 18.7303 11.75ZM16.7991 5.75H14.1056C13.7924 5.20655 13.4146 4.7029 12.9806 4.25H14.25C15.1875 4.25 16.0688 4.8125 16.7991 5.75ZM5.25 12.5C5.25 8.02812 7.3125 4.25 9.75 4.25C12.1875 4.25 14.25 8.02812 14.25 12.5C14.25 16.9719 12.1875 20.75 9.75 20.75C7.3125 20.75 5.25 16.9719 5.25 12.5ZM14.25 20.75H12.9834C13.4174 20.2971 13.7952 19.7935 14.1084 19.25H16.8019C16.0688 20.1875 15.1875 20.75 14.25 20.75ZM17.6906 17.75H14.8237C15.3662 16.3085 15.6727 14.789 15.7313 13.25H18.7313C18.6431 14.9375 18.2644 16.4956 17.6906 17.75Z" fill="#555555"/>
</svg>
