<svg width="28" height="28" viewBox="0 0 28 28" fill="none" xmlns="http://www.w3.org/2000/svg">
<path d="M19.0312 5.22266C17.6802 3.66235 16.1597 2.25734 14.4977 1.03359C14.3505 0.930529 14.1753 0.875244 13.9956 0.875244C13.816 0.875244 13.6407 0.930529 13.4936 1.03359C11.8347 2.25785 10.317 3.66284 8.96875 5.22266C5.96203 8.67562 4.375 12.3156 4.375 15.75C4.375 18.3027 5.38906 20.7509 7.1941 22.5559C8.99914 24.3609 11.4473 25.375 14 25.375C16.5527 25.375 19.0009 24.3609 20.8059 22.5559C22.6109 20.7509 23.625 18.3027 23.625 15.75C23.625 12.3156 22.038 8.67562 19.0312 5.22266ZM14 23.625C11.9121 23.6227 9.91044 22.7923 8.43409 21.3159C6.95775 19.8396 6.12732 17.8379 6.125 15.75C6.125 9.49047 12.192 4.26562 14 2.84375C15.808 4.26562 21.875 9.48828 21.875 15.75C21.8727 17.8379 21.0423 19.8396 19.5659 21.3159C18.0896 22.7923 16.0879 23.6227 14 23.625ZM20.113 16.7716C19.8861 18.0389 19.2763 19.2063 18.3659 20.1166C17.4554 21.0269 16.2879 21.6364 15.0205 21.863C14.9724 21.8707 14.9237 21.8747 14.875 21.875C14.6555 21.8749 14.4441 21.7924 14.2826 21.6437C14.1211 21.4951 14.0214 21.2912 14.0032 21.0724C13.9851 20.8537 14.0498 20.6361 14.1845 20.4629C14.3192 20.2896 14.5142 20.1733 14.7306 20.137C16.543 19.8319 18.0808 18.2941 18.3881 16.4784C18.427 16.2496 18.5552 16.0455 18.7445 15.9112C18.9338 15.7768 19.1688 15.7232 19.3977 15.762C19.6265 15.8009 19.8306 15.9291 19.9649 16.1184C20.0993 16.3077 20.1529 16.5427 20.1141 16.7716H20.113Z" fill="#2B64BA"/>
</svg>
