<svg width="28" height="28" viewBox="0 0 28 28" fill="none" xmlns="http://www.w3.org/2000/svg">
<path d="M23.625 11.375H11.1661L22.9688 8.25889C23.0805 8.22946 23.1853 8.17819 23.2771 8.10804C23.3689 8.0379 23.4459 7.95027 23.5036 7.85021C23.5614 7.75015 23.5988 7.63964 23.6136 7.52506C23.6284 7.41049 23.6204 7.29411 23.59 7.18264L22.6975 3.90139C22.5747 3.45994 22.2829 3.08465 21.8853 2.8568C21.4878 2.62895 21.0164 2.56689 20.5734 2.68405L3.91673 7.08092C3.69494 7.1385 3.48688 7.23973 3.3047 7.37871C3.12253 7.51769 2.96991 7.69161 2.85579 7.8903C2.74103 8.08655 2.66688 8.30387 2.63776 8.52934C2.60863 8.75481 2.62513 8.98383 2.68626 9.2028L3.50001 12.2019C3.50001 12.2172 3.50001 12.2336 3.50001 12.25V21.875C3.50001 22.3391 3.68438 22.7842 4.01257 23.1124C4.34076 23.4406 4.78588 23.625 5.25001 23.625H22.75C23.2141 23.625 23.6593 23.4406 23.9874 23.1124C24.3156 22.7842 24.5 22.3391 24.5 21.875V12.25C24.5 12.0179 24.4078 11.7954 24.2437 11.6313C24.0796 11.4672 23.8571 11.375 23.625 11.375ZM21.0175 4.37499L21.6738 6.78889L19.1997 7.44514L16.1241 5.66889L21.0175 4.37499ZM13.7233 6.29999L16.7989 8.07624L12.7586 9.14264L9.68298 7.36858L13.7233 6.29999ZM5.03891 11.1803L4.38266 8.7653L7.2811 7.99967L10.3567 9.77811L5.03891 11.1803ZM22.75 21.875H5.25001V13.125H22.75V21.875Z" fill="#2B64BA"/>
</svg>
