<svg width="28" height="28" viewBox="0 0 28 28" fill="none" xmlns="http://www.w3.org/2000/svg">
<path d="M26.8877 13.3033C26.7761 13.1072 26.6266 12.9353 26.4478 12.7976C26.269 12.66 26.0646 12.5593 25.8465 12.5016C25.0552 12.2979 24.2376 12.216 23.4216 12.2587C23.8591 10.0877 23.531 8.37047 23.1963 7.35219C23.0629 6.9339 22.7785 6.58028 22.3986 6.36028C22.0186 6.14028 21.5704 6.06966 21.1412 6.16219C20.0282 6.41006 18.9699 6.85932 18.0185 7.48781C17.3217 6.06445 16.3073 4.82021 15.0534 3.85109C14.7495 3.62319 14.3799 3.5 14.0001 3.5C13.6202 3.5 13.2507 3.62319 12.9468 3.85109C11.6926 4.81992 10.6781 6.06424 9.98164 7.48781C9.03024 6.85932 7.97196 6.41006 6.85898 6.16219C6.4298 6.06966 5.98153 6.14028 5.60158 6.36028C5.22164 6.58028 4.93723 6.9339 4.80383 7.35219C4.4757 8.37047 4.14758 10.0866 4.57851 12.2587C3.76259 12.216 2.94492 12.2979 2.15367 12.5016C1.93556 12.5593 1.73115 12.66 1.55237 12.7976C1.3736 12.9353 1.22403 13.1072 1.11242 13.3033C0.995614 13.5042 0.919982 13.7263 0.889936 13.9567C0.85989 14.1871 0.876032 14.4212 0.937421 14.6453C1.3082 16.0202 2.4468 18.6353 5.89539 20.6959C9.34398 22.7566 12.3737 22.75 14.0055 22.75C15.6374 22.75 18.6726 22.75 22.0993 20.6959C25.5479 18.6353 26.6865 16.0202 27.0573 14.6453C27.1195 14.4216 27.1365 14.1877 27.1074 13.9573C27.0783 13.7268 27.0036 13.5045 26.8877 13.3033ZM6.46851 7.89031C6.46982 7.88488 6.47316 7.88016 6.47783 7.87711C6.48251 7.87406 6.48818 7.87291 6.49367 7.87391C7.51139 8.10381 8.4718 8.53806 9.31664 9.15031C8.93196 10.4087 8.74092 11.7183 8.75008 13.0342C8.75008 15.0839 9.16242 16.753 9.74648 18.0961C8.91616 17.265 8.19771 16.3293 7.6093 15.3125C5.63836 11.8803 6.04851 9.1875 6.46851 7.89031ZM6.79664 19.1942C3.87961 17.453 2.93351 15.318 2.62508 14.1859C3.42988 13.9878 4.265 13.9444 5.08601 14.058C5.36011 14.7922 5.69486 15.5023 6.0868 16.1809C7.04914 17.8401 8.30991 19.307 9.80555 20.5078C8.74795 20.2037 7.73486 19.7621 6.79226 19.1942H6.79664ZM14.0001 20.825C12.9796 20.0659 10.5001 17.7373 10.5001 13.0342C10.5001 8.38906 12.9479 6.04187 14.0001 5.25C15.0523 6.04406 17.5001 8.39125 17.5001 13.0364C17.5001 17.7373 15.0205 20.0659 14.0001 20.825ZM18.6835 9.15031C19.5284 8.53844 20.4888 8.10457 21.5065 7.875C21.512 7.87401 21.5176 7.87515 21.5223 7.8782C21.527 7.88125 21.5303 7.88598 21.5316 7.89141C21.9516 9.1875 22.3618 11.8803 20.3909 15.3125C19.803 16.3306 19.0845 17.2675 18.2537 18.0994C18.8377 16.7584 19.2501 15.0872 19.2501 13.0375C19.2596 11.7205 19.0685 10.4098 18.6835 9.15031ZM25.3751 14.1881C25.0721 15.3092 24.1282 17.4486 21.209 19.1942C20.2663 19.7617 19.2532 20.203 18.1957 20.5067C19.6913 19.3059 20.9521 17.839 21.9145 16.1798C22.3064 15.5012 22.6411 14.7911 22.9152 14.0569C23.736 13.9438 24.5708 13.988 25.3751 14.187V14.1881Z" fill="#2B64BA"/>
</svg>
