<svg width="28" height="28" viewBox="0 0 28 28" fill="none" xmlns="http://www.w3.org/2000/svg">
<path d="M26.6132 12.7629L24.8632 11.0129C24.5664 10.7165 24.173 10.5365 23.7546 10.5058C23.3363 10.4751 22.9208 10.5957 22.5839 10.8456L17.1545 5.41623C17.4046 5.07944 17.5253 4.66402 17.4948 4.24565C17.4643 3.82728 17.2845 3.43379 16.9882 3.13685L15.2382 1.38685C15.0757 1.22431 14.8828 1.09537 14.6704 1.00739C14.4581 0.919424 14.2305 0.874146 14.0007 0.874146C13.7708 0.874146 13.5432 0.919424 13.3309 1.00739C13.1185 1.09537 12.9256 1.22431 12.7631 1.38685L5.76308 8.38685C5.60053 8.54936 5.47159 8.74229 5.38362 8.95464C5.29565 9.16699 5.25037 9.39458 5.25037 9.62443C5.25037 9.85428 5.29565 10.0819 5.38362 10.2942C5.47159 10.5066 5.60053 10.6995 5.76308 10.862L7.51308 12.612C7.80995 12.908 8.20323 13.0876 8.62135 13.1181C9.03947 13.1486 9.45465 13.028 9.79136 12.7783L10.5756 13.5625L3.42464 20.7134C2.94956 21.233 2.6932 21.9158 2.70894 22.6197C2.72468 23.3235 3.0113 23.9942 3.50913 24.492C4.00696 24.9899 4.67763 25.2765 5.3815 25.2922C6.08536 25.308 6.76818 25.0516 7.28776 24.5765L14.4376 17.4256L15.2218 18.2087C14.9717 18.5455 14.851 18.9609 14.8815 19.3793C14.912 19.7977 15.0918 20.1912 15.3881 20.4881L17.1381 22.2381C17.3006 22.4006 17.4935 22.5296 17.7059 22.6176C17.9182 22.7055 18.1458 22.7508 18.3757 22.7508C18.6055 22.7508 18.8331 22.7055 19.0454 22.6176C19.2578 22.5296 19.4507 22.4006 19.6132 22.2381L26.6132 15.2381C26.7758 15.0756 26.9047 14.8827 26.9927 14.6703C27.0807 14.458 27.1259 14.2304 27.1259 14.0005C27.1259 13.7707 27.0807 13.5431 26.9927 13.3307C26.9047 13.1184 26.7758 12.9255 26.6132 12.7629ZM8.75011 11.375L7.00011 9.62498L14.0001 2.62498L15.7501 4.37498L8.75011 11.375ZM6.05073 23.3384C5.8663 23.5218 5.61681 23.6247 5.35675 23.6247C5.09669 23.6247 4.8472 23.5218 4.66276 23.3384C4.47976 23.154 4.37706 22.9048 4.37706 22.645C4.37706 22.3852 4.47976 22.1359 4.66276 21.9515L11.8126 14.8006L13.2006 16.1875L6.05073 23.3384ZM11.047 11.5565L15.9317 6.67185L21.3282 12.0684L16.4446 16.9531L11.047 11.5565ZM18.3751 21L16.6251 19.25L17.0626 18.8125L23.1876 12.6875L23.6251 12.25L25.3751 14L18.3751 21Z" fill="#2B64BA"/>
</svg>
