<svg width="28" height="28" viewBox="0 0 28 28" fill="none" xmlns="http://www.w3.org/2000/svg">
<path d="M12.25 12.6875C12.25 12.9471 12.173 13.2008 12.0288 13.4167C11.8846 13.6325 11.6796 13.8008 11.4398 13.9001C11.1999 13.9994 10.936 14.0254 10.6814 13.9748C10.4268 13.9241 10.193 13.7991 10.0094 13.6156C9.82587 13.432 9.70086 13.1982 9.65022 12.9436C9.59958 12.689 9.62557 12.4251 9.72491 12.1852C9.82425 11.9454 9.99248 11.7404 10.2083 11.5962C10.4242 11.452 10.6779 11.375 10.9375 11.375C11.2856 11.375 11.6194 11.5133 11.8656 11.7594C12.1117 12.0056 12.25 12.3394 12.25 12.6875ZM17.0625 11.375C16.8029 11.375 16.5492 11.452 16.3333 11.5962C16.1175 11.7404 15.9492 11.9454 15.8499 12.1852C15.7506 12.4251 15.7246 12.689 15.7752 12.9436C15.8259 13.1982 15.9509 13.432 16.1344 13.6156C16.318 13.7991 16.5518 13.9241 16.8064 13.9748C17.061 14.0254 17.3249 13.9994 17.5648 13.9001C17.8046 13.8008 18.0096 13.6325 18.1538 13.4167C18.298 13.2008 18.375 12.9471 18.375 12.6875C18.375 12.3394 18.2367 12.0056 17.9906 11.7594C17.7444 11.5133 17.4106 11.375 17.0625 11.375ZM24.5 13.125V23.625C24.5 23.7907 24.453 23.953 24.3644 24.093C24.2758 24.2331 24.1493 24.3451 23.9995 24.416C23.8498 24.4869 23.6829 24.5139 23.5185 24.4937C23.354 24.4735 23.1986 24.407 23.0705 24.302L20.417 22.1309L17.7625 24.302C17.6062 24.4299 17.4105 24.4997 17.2085 24.4997C17.0066 24.4997 16.8108 24.4299 16.6545 24.302L14 22.1309L11.3455 24.302C11.1892 24.4299 10.9934 24.4997 10.7915 24.4997C10.5895 24.4997 10.3938 24.4299 10.2375 24.302L7.58297 22.1309L4.92953 24.302C4.80135 24.407 4.64599 24.4735 4.48152 24.4937C4.31705 24.5139 4.15023 24.4869 4.00048 24.416C3.85072 24.3451 3.72418 24.2331 3.63558 24.093C3.54698 23.953 3.49996 23.7907 3.5 23.625V13.125C3.5 10.3402 4.60625 7.66951 6.57538 5.70038C8.54451 3.73125 11.2152 2.625 14 2.625C16.7848 2.625 19.4555 3.73125 21.4246 5.70038C23.3938 7.66951 24.5 10.3402 24.5 13.125ZM22.75 13.125C22.75 10.8044 21.8281 8.57876 20.1872 6.93782C18.5462 5.29687 16.3206 4.375 14 4.375C11.6794 4.375 9.45376 5.29687 7.81282 6.93782C6.17187 8.57876 5.25 10.8044 5.25 13.125V21.7787L7.02953 20.323C7.18584 20.1951 7.38157 20.1253 7.58352 20.1253C7.78546 20.1253 7.98119 20.1951 8.1375 20.323L10.792 22.4941L13.4455 20.323C13.6019 20.1948 13.7978 20.1248 14 20.1248C14.2022 20.1248 14.3981 20.1948 14.5545 20.323L17.208 22.4941L19.8625 20.323C20.0188 20.1951 20.2145 20.1253 20.4165 20.1253C20.6184 20.1253 20.8142 20.1951 20.9705 20.323L22.75 21.7787V13.125Z" fill="#2B64BA"/>
</svg>
