<svg width="28" height="28" viewBox="0 0 28 28" fill="none" xmlns="http://www.w3.org/2000/svg">
<path d="M21.875 8.74997H20.125V6.99997C20.1242 6.28938 19.9071 5.59587 19.5026 5.01163C19.0982 4.4274 18.5254 3.98012 17.8606 3.72926C17.1958 3.4784 16.4703 3.43585 15.7807 3.60727C15.0911 3.77868 14.47 4.15593 14 4.68888C13.5521 4.18118 12.9665 3.8143 12.3142 3.63271C11.662 3.45111 10.9711 3.46259 10.3252 3.66576C9.67937 3.86893 9.10631 4.25506 8.67549 4.77736C8.24467 5.29966 7.97458 5.9357 7.89797 6.60841C7.36639 6.29609 6.76175 6.12974 6.14522 6.12618C5.5287 6.12262 4.92217 6.28197 4.38702 6.58812C3.85187 6.89427 3.40708 7.33635 3.09767 7.86962C2.78826 8.40289 2.6252 9.00844 2.625 9.62497V14C2.625 17.0168 3.82343 19.9101 5.95666 22.0433C8.08989 24.1765 10.9832 25.375 14 25.375C17.0168 25.375 19.9101 24.1765 22.0433 22.0433C24.1766 19.9101 25.375 17.0168 25.375 14V12.25C25.375 11.3217 25.0063 10.4315 24.3499 9.7751C23.6935 9.11872 22.8033 8.74997 21.875 8.74997ZM16.625 5.24997C17.0891 5.24997 17.5342 5.43435 17.8624 5.76253C18.1906 6.09072 18.375 6.53584 18.375 6.99997V8.74997H14.875V6.99997C14.875 6.53584 15.0594 6.09072 15.3876 5.76253C15.7158 5.43435 16.1609 5.24997 16.625 5.24997ZM9.625 6.99997C9.625 6.53584 9.80937 6.09072 10.1376 5.76253C10.4658 5.43435 10.9109 5.24997 11.375 5.24997C11.8391 5.24997 12.2842 5.43435 12.6124 5.76253C12.9406 6.09072 13.125 6.53584 13.125 6.99997V11.375C13.125 11.8391 12.9406 12.2842 12.6124 12.6124C12.2842 12.9406 11.8391 13.125 11.375 13.125C10.9109 13.125 10.4658 12.9406 10.1376 12.6124C9.80937 12.2842 9.625 11.8391 9.625 11.375V6.99997ZM4.375 9.62497C4.375 9.16084 4.55937 8.71572 4.88756 8.38753C5.21575 8.05935 5.66087 7.87497 6.125 7.87497C6.58913 7.87497 7.03425 8.05935 7.36244 8.38753C7.69063 8.71572 7.875 9.16084 7.875 9.62497V11.375C7.875 11.8391 7.69063 12.2842 7.36244 12.6124C7.03425 12.9406 6.58913 13.125 6.125 13.125C5.66087 13.125 5.21575 12.9406 4.88756 12.6124C4.55937 12.2842 4.375 11.8391 4.375 11.375V9.62497ZM23.625 14C23.625 16.5171 22.6388 18.9341 20.878 20.7329C19.1171 22.5316 16.7217 23.569 14.2051 23.6226C11.6885 23.6763 9.25108 22.7419 7.41518 21.0198C5.57928 19.2978 4.49106 16.925 4.38375 14.4101C5.08315 14.8124 5.90026 14.96 6.69622 14.8281C7.49217 14.6961 8.21787 14.2925 8.75 13.6861C9.35304 14.3732 10.2015 14.7965 11.1131 14.865C12.0248 14.9335 12.927 14.6418 13.6259 14.0525C13.9407 14.5741 14.3854 15.0053 14.9166 15.3037C14.3536 15.7955 13.9024 16.4021 13.5934 17.0828C13.2844 17.7635 13.1247 18.5024 13.125 19.25C13.125 19.482 13.2172 19.7046 13.3813 19.8687C13.5454 20.0328 13.7679 20.125 14 20.125C14.2321 20.125 14.4546 20.0328 14.6187 19.8687C14.7828 19.7046 14.875 19.482 14.875 19.25C14.875 18.3217 15.2437 17.4315 15.9001 16.7751C16.5565 16.1187 17.4467 15.75 18.375 15.75C18.6071 15.75 18.8296 15.6578 18.9937 15.4937C19.1578 15.3296 19.25 15.107 19.25 14.875C19.25 14.6429 19.1578 14.4203 18.9937 14.2563C18.8296 14.0922 18.6071 14 18.375 14H16.625C16.1609 14 15.7158 13.8156 15.3876 13.4874C15.0594 13.1592 14.875 12.7141 14.875 12.25V10.5H21.875C22.3391 10.5 22.7842 10.6843 23.1124 11.0125C23.4406 11.3407 23.625 11.7858 23.625 12.25V14Z" fill="#2B64BA"/>
</svg>
