<svg width="28" height="28" viewBox="0 0 28 28" fill="none" xmlns="http://www.w3.org/2000/svg">
<g clip-path="url(#clip0_21_38437)">
<path d="M25.1923 15.4284C24.9062 15.2079 24.5782 15.0479 24.2283 14.9582C23.8783 14.8685 23.5138 14.851 23.1569 14.9067C25.2109 12.8329 26.25 10.7712 26.25 8.74998C26.25 5.85482 23.9214 3.49998 21.0591 3.49998C20.2996 3.49521 19.5482 3.65674 18.8578 3.97323C18.1674 4.28972 17.5546 4.7535 17.0625 5.33201C16.5704 4.7535 15.9576 4.28972 15.2672 3.97323C14.5768 3.65674 13.8254 3.49521 13.0659 3.49998C10.2036 3.49998 7.875 5.85482 7.875 8.74998C7.875 9.95311 8.22937 11.1223 8.97531 12.3594C8.36438 12.5141 7.80685 12.8316 7.36203 13.2781L4.88797 15.75H1.75C1.28587 15.75 0.840752 15.9344 0.512563 16.2625C0.184374 16.5907 0 17.0359 0 17.5L0 21.875C0 22.3391 0.184374 22.7842 0.512563 23.1124C0.840752 23.4406 1.28587 23.625 1.75 23.625H13.125C13.1965 23.625 13.2678 23.6162 13.3372 23.5987L20.3372 21.8487C20.3818 21.8381 20.4254 21.8235 20.4673 21.805L24.7187 19.9959L24.7669 19.974C25.1755 19.7699 25.5254 19.465 25.7836 19.0883C26.0418 18.7115 26.1999 18.2752 26.2429 17.8205C26.2859 17.3657 26.2124 16.9075 26.0294 16.4891C25.8463 16.0706 25.5598 15.7056 25.1967 15.4284H25.1923ZM13.0659 5.24998C13.7436 5.24006 14.4089 5.4325 14.9766 5.80269C15.5444 6.17287 15.9888 6.70398 16.2531 7.32811C16.319 7.48859 16.4312 7.62585 16.5753 7.72246C16.7194 7.81906 16.889 7.87063 17.0625 7.87063C17.236 7.87063 17.4056 7.81906 17.5497 7.72246C17.6938 7.62585 17.806 7.48859 17.8719 7.32811C18.1362 6.70398 18.5806 6.17287 19.1484 5.80269C19.7161 5.4325 20.3814 5.24006 21.0591 5.24998C22.9239 5.24998 24.5 6.85232 24.5 8.74998C24.5 10.8839 22.773 13.2978 19.5059 15.739L18.293 16.0179C18.3994 15.5682 18.4027 15.1002 18.3026 14.649C18.2024 14.1977 18.0015 13.7751 17.7147 13.4126C17.428 13.0501 17.063 12.7572 16.6469 12.5558C16.2309 12.3545 15.7747 12.2499 15.3125 12.25H11.0119C10.068 10.9769 9.625 9.85686 9.625 8.74998C9.625 6.85232 11.2011 5.24998 13.0659 5.24998ZM1.75 17.5H4.375V21.875H1.75V17.5ZM24.0002 18.3979L19.8439 20.1676L13.0156 21.875H6.125V16.987L8.60016 14.5129C8.76207 14.3497 8.95481 14.2203 9.16717 14.1323C9.37954 14.0442 9.60729 13.9992 9.83719 14H15.3125C15.6606 14 15.9944 14.1383 16.2406 14.3844C16.4867 14.6305 16.625 14.9644 16.625 15.3125C16.625 15.6606 16.4867 15.9944 16.2406 16.2406C15.9944 16.4867 15.6606 16.625 15.3125 16.625H12.25C12.0179 16.625 11.7954 16.7172 11.6313 16.8813C11.4672 17.0454 11.375 17.2679 11.375 17.5C11.375 17.732 11.4672 17.9546 11.6313 18.1187C11.7954 18.2828 12.0179 18.375 12.25 18.375H15.75C15.8159 18.3748 15.8815 18.3675 15.9458 18.3531L23.2739 16.6676L23.3078 16.6589C23.5315 16.5968 23.7703 16.6196 23.9782 16.723C24.1861 16.8263 24.3484 17.0029 24.4339 17.2187C24.5194 17.4346 24.5221 17.6744 24.4414 17.8921C24.3607 18.1098 24.2024 18.29 23.9969 18.3979H24.0002Z" fill="#2B64BA"/>
</g>
<defs>
<clipPath id="clip0_21_38437">
<rect width="28" height="28" fill="white"/>
</clipPath>
</defs>
</svg>
