<svg width="28" height="28" viewBox="0 0 28 28" fill="none" xmlns="http://www.w3.org/2000/svg">
<path d="M19.2501 25.375C19.2501 25.607 19.158 25.8296 18.9939 25.9937C18.8298 26.1578 18.6072 26.25 18.3751 26.25H9.62514C9.39308 26.25 9.17052 26.1578 9.00642 25.9937C8.84233 25.8296 8.75014 25.607 8.75014 25.375C8.75014 25.1429 8.84233 24.9204 9.00642 24.7563C9.17052 24.5922 9.39308 24.5 9.62514 24.5H18.3751C18.6072 24.5 18.8298 24.5922 18.9939 24.7563C19.158 24.9204 19.2501 25.1429 19.2501 25.375ZM23.6251 11.375C23.6289 12.8337 23.2994 14.2739 22.6617 15.5858C22.0241 16.8977 21.0951 18.0466 19.9458 18.9448C19.7309 19.1096 19.5565 19.3212 19.4359 19.5637C19.3153 19.8062 19.2518 20.073 19.2501 20.3437V21C19.2501 21.4641 19.0658 21.9092 18.7376 22.2374C18.4094 22.5656 17.9643 22.75 17.5001 22.75H10.5001C10.036 22.75 9.5909 22.5656 9.26271 22.2374C8.93452 21.9092 8.75014 21.4641 8.75014 21V20.3437C8.74996 20.0762 8.68845 19.8123 8.57032 19.5722C8.45219 19.3322 8.2806 19.1224 8.06874 18.959C6.92241 18.0663 5.99418 16.9245 5.35426 15.62C4.71435 14.3155 4.37953 12.8826 4.37514 11.4297C4.34671 6.21577 8.55983 1.87577 13.7683 1.74999C15.0516 1.71906 16.3282 1.94517 17.5228 2.41501C18.7175 2.88484 19.8061 3.58891 20.7246 4.48577C21.643 5.38263 22.3728 6.45417 22.871 7.6373C23.3691 8.82044 23.6255 10.0913 23.6251 11.375ZM21.8751 11.375C21.8755 10.3246 21.6656 9.2848 21.258 8.31674C20.8504 7.34868 20.2533 6.47194 19.5017 5.73814C18.7502 5.00434 17.8595 4.42829 16.8819 4.04392C15.9044 3.65954 14.8599 3.4746 13.8098 3.49999C9.54421 3.60061 6.10217 7.15202 6.12514 11.4176C6.12906 12.6061 6.40327 13.7781 6.92703 14.845C7.45079 15.9118 8.21036 16.8455 9.14827 17.5755C9.56985 17.9032 9.91085 18.323 10.1452 18.8029C10.3795 19.2827 10.5009 19.8098 10.5001 20.3437V21H13.1251V16.112L9.88108 12.869C9.71689 12.7049 9.62466 12.4822 9.62466 12.25C9.62466 12.0178 9.71689 11.7951 9.88108 11.6309C10.0453 11.4667 10.2679 11.3745 10.5001 11.3745C10.7323 11.3745 10.955 11.4667 11.1192 11.6309L14.0001 14.513L16.8811 11.6309C16.9624 11.5496 17.0589 11.4851 17.1651 11.4411C17.2713 11.3971 17.3852 11.3745 17.5001 11.3745C17.6151 11.3745 17.729 11.3971 17.8352 11.4411C17.9414 11.4851 18.0379 11.5496 18.1192 11.6309C18.2005 11.7122 18.265 11.8087 18.309 11.915C18.353 12.0212 18.3756 12.135 18.3756 12.25C18.3756 12.365 18.353 12.4788 18.309 12.585C18.265 12.6912 18.2005 12.7878 18.1192 12.869L14.8751 16.112V21H17.5001V20.3437C17.5011 19.8082 17.6245 19.28 17.8609 18.7994C18.0973 18.3189 18.4404 17.8987 18.864 17.5711C19.8048 16.8359 20.5651 15.8955 21.0869 14.8216C21.6088 13.7478 21.8784 12.5689 21.8751 11.375Z" fill="#2B64BA"/>
</svg>
