<svg width="28" height="28" viewBox="0 0 28 28" fill="none" xmlns="http://www.w3.org/2000/svg">
<path d="M23.6021 12.9249C23.5689 12.7846 23.5017 12.6547 23.4063 12.5467C23.3109 12.4387 23.1903 12.356 23.0552 12.3058L16.7541 9.9422L18.3575 1.92173C18.3938 1.73538 18.3686 1.54227 18.2855 1.37155C18.2024 1.20083 18.0661 1.06177 17.897 0.975332C17.728 0.888898 17.5354 0.859789 17.3484 0.892399C17.1614 0.925008 16.99 1.01757 16.8602 1.15611L4.61019 14.2811C4.5107 14.3859 4.43872 14.5138 4.4007 14.6532C4.36267 14.7927 4.35978 14.9394 4.39228 15.0802C4.42478 15.221 4.49166 15.3516 4.58694 15.4603C4.68223 15.569 4.80295 15.6523 4.93832 15.703L11.2416 18.0666L9.64254 26.0783C9.60623 26.2646 9.63152 26.4578 9.71458 26.6285C9.79765 26.7992 9.93399 26.9383 10.103 27.0247C10.2721 27.1111 10.4646 27.1402 10.6517 27.1076C10.8387 27.075 11.0101 26.9825 11.1399 26.8439L23.3899 13.7189C23.4876 13.6141 23.558 13.4868 23.595 13.3484C23.632 13.2099 23.6344 13.0645 23.6021 12.9249ZM11.9624 23.4063L13.1075 17.6772C13.1485 17.474 13.116 17.2629 13.0159 17.0814C12.9157 16.8999 12.7544 16.7599 12.5607 16.6863L6.78129 14.5152L16.0366 4.59923L14.8925 10.3283C14.8516 10.5315 14.884 10.7426 14.9842 10.9241C15.0843 11.1056 15.2457 11.2456 15.4394 11.3192L21.2144 13.4849L11.9624 23.4063Z" fill="#2B64BA"/>
</svg>
