<svg width="28" height="28" viewBox="0 0 28 28" fill="none" xmlns="http://www.w3.org/2000/svg">
<path d="M25.1188 23.8809L19.6424 18.4056C21.2297 16.5 22.0212 14.0558 21.8523 11.5814C21.6833 9.10709 20.567 6.79313 18.7354 5.12091C16.9039 3.4487 14.4981 2.54697 12.0187 2.60332C9.5392 2.65967 7.17691 3.66976 5.42321 5.42345C3.66951 7.17715 2.65943 9.53944 2.60308 12.0189C2.54673 14.4984 3.44845 16.9041 5.12067 18.7357C6.79289 20.5672 9.10685 21.6836 11.5812 21.8525C14.0555 22.0215 16.4998 21.2299 18.4054 19.6427L23.8807 25.1191C23.962 25.2004 24.0585 25.2649 24.1647 25.3089C24.271 25.3528 24.3848 25.3755 24.4998 25.3755C24.6147 25.3755 24.7286 25.3528 24.8348 25.3089C24.941 25.2649 25.0375 25.2004 25.1188 25.1191C25.2001 25.0378 25.2646 24.9413 25.3086 24.835C25.3526 24.7288 25.3753 24.615 25.3753 24.5C25.3753 24.385 25.3526 24.2712 25.3086 24.165C25.2646 24.0588 25.2001 23.9622 25.1188 23.8809ZM4.37476 12.25C4.37476 10.6925 4.83662 9.16993 5.70194 7.87489C6.56725 6.57985 7.79716 5.57049 9.23613 4.97445C10.6751 4.37841 12.2585 4.22246 13.7861 4.52632C15.3137 4.83018 16.7169 5.5802 17.8182 6.68154C18.9196 7.78288 19.6696 9.18607 19.9734 10.7137C20.2773 12.2413 20.1214 13.8247 19.5253 15.2636C18.9293 16.7026 17.9199 17.9325 16.6249 18.7978C15.3298 19.6631 13.8073 20.125 12.2498 20.125C10.1619 20.1227 8.1602 19.2923 6.68385 17.8159C5.20751 16.3396 4.37708 14.3379 4.37476 12.25Z" fill="#2B64BA"/>
</svg>
