<svg width="28" height="28" viewBox="0 0 28 28" fill="none" xmlns="http://www.w3.org/2000/svg">
<path d="M23.7344 3.80628C23.4999 3.64526 23.2297 3.54403 22.9471 3.51143C22.6646 3.47883 22.3784 3.51585 22.1134 3.61925C20.5789 4.21644 17.4803 5.21831 14 5.21831C10.5197 5.21831 7.42 4.21644 5.88328 3.61925C5.61814 3.51632 5.33191 3.47958 5.04936 3.51218C4.76682 3.54479 4.49648 3.64577 4.26176 3.80639C4.02703 3.967 3.83499 4.18241 3.70225 4.43396C3.56952 4.6855 3.5001 4.96561 3.5 5.25003V11.3499C3.5 15.2699 4.55547 18.9678 6.47281 21.7602C8.45906 24.6542 11.1322 26.2446 14 26.2446C16.8678 26.2446 19.5409 24.651 21.5272 21.7602C23.4445 18.97 24.5 15.2721 24.5 11.3521V5.25003C24.4995 4.96525 24.4295 4.68489 24.2961 4.4333C24.1626 4.1817 23.9698 3.96647 23.7344 3.80628ZM22.75 11.3532C22.75 14.9232 21.8028 18.2689 20.0845 20.7736C18.4341 23.1766 16.2739 24.5 14 24.5C11.7261 24.5 9.56594 23.1766 7.91547 20.7725C6.19719 18.2657 5.25 14.9221 5.25 11.3521V5.25003C6.90266 5.89206 10.2353 6.96831 14 6.96831C17.7647 6.96831 21.0984 5.89206 22.75 5.25003V11.3542V11.3532ZM20.7812 13.4171C20.9359 13.5911 21.015 13.8194 21.0013 14.0518C20.9875 14.2842 20.882 14.5017 20.708 14.6563C20.5339 14.8109 20.3056 14.89 20.0732 14.8763C19.8408 14.8625 19.6234 14.757 19.4688 14.583C19.1756 14.2549 18.5008 14 17.9375 14C17.3742 14 16.695 14.256 16.4062 14.583C16.2515 14.757 16.0339 14.8625 15.8014 14.8761C15.5689 14.8898 15.3405 14.8105 15.1665 14.6557C14.9924 14.501 14.887 14.2834 14.8734 14.0509C14.8597 13.8184 14.939 13.59 15.0938 13.416C15.7183 12.7182 16.8591 12.25 17.9375 12.25C19.0159 12.25 20.1523 12.7182 20.7812 13.416V13.4171ZM10.0625 14C9.49484 14 8.82 14.256 8.53125 14.583C8.37649 14.757 8.15893 14.8625 7.92643 14.8761C7.69393 14.8898 7.46553 14.8105 7.29148 14.6557C7.11744 14.501 7.01199 14.2834 6.99835 14.0509C6.98471 13.8184 7.06399 13.59 7.21875 13.416C7.84766 12.7182 8.98844 12.25 10.0625 12.25C11.1366 12.25 12.2773 12.7182 12.9062 13.416C13.061 13.59 13.1403 13.8184 13.1266 14.0509C13.113 14.2834 13.0076 14.501 12.8335 14.6557C12.7473 14.7324 12.6469 14.7913 12.538 14.8291C12.429 14.8669 12.3137 14.8829 12.1986 14.8761C11.9661 14.8625 11.7485 14.757 11.5938 14.583C11.305 14.256 10.6302 14 10.0625 14ZM18.4242 18.9427C17.8811 19.5871 17.2038 20.1051 16.4396 20.4604C15.6754 20.8158 14.8428 20.9999 14 20.9999C13.1572 20.9999 12.3246 20.8158 11.5604 20.4604C10.7962 20.1051 10.1189 19.5871 9.57578 18.9427C9.50116 18.8553 9.44449 18.754 9.409 18.6447C9.37351 18.5354 9.3599 18.4202 9.36894 18.3056C9.37797 18.1911 9.40949 18.0794 9.46168 17.977C9.51388 17.8747 9.58572 17.7836 9.67313 17.7089C9.76053 17.6343 9.86177 17.5776 9.97107 17.5422C10.0804 17.5067 10.1956 17.493 10.3102 17.5021C10.4247 17.5111 10.5364 17.5426 10.6388 17.5948C10.7412 17.647 10.8323 17.7189 10.9069 17.8063C11.2856 18.2584 11.7588 18.622 12.2932 18.8715C12.8276 19.121 13.4102 19.2503 14 19.2503C14.5898 19.2503 15.1724 19.121 15.7068 18.8715C16.2412 18.622 16.7144 18.2584 17.0931 17.8063C17.1677 17.7189 17.2588 17.647 17.3612 17.5948C17.4636 17.5426 17.5753 17.5111 17.6898 17.5021C17.8044 17.493 17.9196 17.5067 18.0289 17.5422C18.1382 17.5776 18.2395 17.6343 18.3269 17.7089C18.4143 17.7836 18.4861 17.8747 18.5383 17.977C18.5905 18.0794 18.622 18.1911 18.6311 18.3056C18.6401 18.4202 18.6265 18.5354 18.591 18.6447C18.5555 18.754 18.4988 18.8553 18.4242 18.9427Z" fill="#2B64BA"/>
</svg>
