<svg width="28" height="28" viewBox="0 0 28 28" fill="none" xmlns="http://www.w3.org/2000/svg">
<path d="M23.2881 1.93485C23.1833 1.85318 23.0613 1.79645 22.9313 1.76898C22.8013 1.7415 22.6667 1.74399 22.5378 1.77626L8.53782 5.27626C8.34852 5.32358 8.18047 5.43281 8.06038 5.58659C7.94028 5.74037 7.87503 5.92989 7.87501 6.12501V18.165C7.14507 17.6773 6.27309 17.4475 5.3976 17.5121C4.52211 17.5768 3.69333 17.9321 3.04293 18.5217C2.39254 19.1114 1.95783 19.9014 1.80787 20.7664C1.65792 21.6313 1.80132 22.5216 2.2153 23.2958C2.62927 24.0699 3.29008 24.6835 4.09272 25.039C4.89536 25.3946 5.79381 25.4717 6.64531 25.2582C7.49682 25.0446 8.25254 24.5527 8.79241 23.8604C9.33227 23.1682 9.62533 22.3154 9.62501 21.4375V12.0586L21.875 8.9961V14.665C21.1451 14.1773 20.2731 13.9475 19.3976 14.0121C18.5221 14.0768 17.6933 14.4321 17.0429 15.0217C16.3925 15.6114 15.9578 16.4014 15.8079 17.2664C15.6579 18.1313 15.8013 19.0216 16.2153 19.7958C16.6293 20.5699 17.2901 21.1835 18.0927 21.539C18.8954 21.8946 19.7938 21.9717 20.6453 21.7582C21.4968 21.5446 22.2525 21.0527 22.7924 20.3604C23.3323 19.6682 23.6253 18.8154 23.625 17.9375V2.62501C23.625 2.49193 23.5947 2.36059 23.5363 2.241C23.478 2.1214 23.3931 2.0167 23.2881 1.93485ZM5.68751 23.625C5.25486 23.625 4.83193 23.4967 4.4722 23.2563C4.11246 23.016 3.83209 22.6743 3.66652 22.2746C3.50095 21.8749 3.45763 21.4351 3.54204 21.0107C3.62644 20.5864 3.83478 20.1966 4.14071 19.8907C4.44664 19.5848 4.83641 19.3764 5.26075 19.292C5.68508 19.2076 6.12491 19.251 6.52463 19.4165C6.92434 19.5821 7.26598 19.8625 7.50635 20.2222C7.74671 20.5819 7.87501 21.0049 7.87501 21.4375C7.87501 22.0177 7.64454 22.5741 7.2343 22.9843C6.82407 23.3945 6.26767 23.625 5.68751 23.625ZM9.62501 10.2539V6.8086L21.875 3.7461V7.19141L9.62501 10.2539ZM19.6875 20.125C19.2549 20.125 18.8319 19.9967 18.4722 19.7563C18.1125 19.516 17.8321 19.1743 17.6665 18.7746C17.501 18.3749 17.4576 17.9351 17.542 17.5107C17.6264 17.0864 17.8348 16.6966 18.1407 16.3907C18.4466 16.0848 18.8364 15.8764 19.2607 15.792C19.6851 15.7076 20.1249 15.751 20.5246 15.9165C20.9243 16.0821 21.266 16.3625 21.5063 16.7222C21.7467 17.0819 21.875 17.5049 21.875 17.9375C21.875 18.5177 21.6445 19.0741 21.2343 19.4843C20.8241 19.8945 20.2677 20.125 19.6875 20.125Z" fill="#2B64BA"/>
</svg>
