<svg width="28" height="28" viewBox="0 0 28 28" fill="none" xmlns="http://www.w3.org/2000/svg">
<path d="M23.625 2.625H7.875C6.71468 2.625 5.60188 3.08594 4.78141 3.90641C3.96094 4.72688 3.5 5.83968 3.5 7V14.875C3.5 15.5712 3.77656 16.2389 4.26884 16.7312C4.76113 17.2234 5.42881 17.5 6.125 17.5H11.375L10.512 22.6045C10.5042 22.6526 10.5002 22.7013 10.5 22.75C10.5 23.6783 10.8687 24.5685 11.5251 25.2249C12.1815 25.8813 13.0717 26.25 14 26.25C14.9283 26.25 15.8185 25.8813 16.4749 25.2249C17.1313 24.5685 17.5 23.6783 17.5 22.75C17.4998 22.7013 17.4958 22.6526 17.488 22.6045L16.625 17.5H21.875C22.5712 17.5 23.2389 17.2234 23.7312 16.7312C24.2234 16.2389 24.5 15.5712 24.5 14.875V3.5C24.5 3.26794 24.4078 3.04538 24.2437 2.88128C24.0796 2.71719 23.8571 2.625 23.625 2.625ZM7.875 4.375H19.25V8.75C19.25 8.98206 19.3422 9.20462 19.5063 9.36872C19.6704 9.53281 19.8929 9.625 20.125 9.625C20.3571 9.625 20.5796 9.53281 20.7437 9.36872C20.9078 9.20462 21 8.98206 21 8.75V4.375H22.75V11.375H5.25V7C5.25 6.30381 5.52656 5.63613 6.01884 5.14384C6.51113 4.65156 7.17881 4.375 7.875 4.375ZM21.875 15.75H16.625C16.3743 15.75 16.1265 15.8039 15.8984 15.9079C15.6704 16.012 15.4673 16.1639 15.303 16.3533C15.1387 16.5426 15.0171 16.7651 14.9462 17.0056C14.8754 17.2461 14.8571 17.499 14.8925 17.7472V17.7691L15.75 22.8156C15.75 23.2798 15.5656 23.7249 15.2374 24.0531C14.9092 24.3813 14.4641 24.5656 14 24.5656C13.5359 24.5656 13.0908 24.3813 12.7626 24.0531C12.4344 23.7249 12.25 23.2798 12.25 22.8156L13.1031 17.7691V17.7472C13.1385 17.4994 13.1203 17.2468 13.0497 17.0067C12.9791 16.7665 12.8578 16.5442 12.694 16.3549C12.5302 16.1656 12.3277 16.0136 12.1002 15.9093C11.8726 15.8049 11.6253 15.7506 11.375 15.75H6.125C5.89294 15.75 5.67038 15.6578 5.50628 15.4937C5.34219 15.3296 5.25 15.1071 5.25 14.875V13.125H22.75V14.875C22.75 15.1071 22.6578 15.3296 22.4937 15.4937C22.3296 15.6578 22.1071 15.75 21.875 15.75Z" fill="#2B64BA"/>
</svg>
