<svg width="28" height="28" viewBox="0 0 28 28" fill="none" xmlns="http://www.w3.org/2000/svg">
<path d="M16.625 8.75C17.3172 8.75 17.9939 8.54473 18.5695 8.16015C19.1451 7.77556 19.5937 7.22894 19.8586 6.58939C20.1235 5.94985 20.1928 5.24612 20.0577 4.56719C19.9227 3.88825 19.5894 3.26461 19.0999 2.77513C18.6104 2.28564 17.9867 1.9523 17.3078 1.81725C16.6289 1.6822 15.9251 1.75152 15.2856 2.01642C14.6461 2.28133 14.0994 2.72993 13.7149 3.30551C13.3303 3.88108 13.125 4.55777 13.125 5.25C13.125 6.17826 13.4937 7.0685 14.1501 7.72488C14.8065 8.38125 15.6967 8.75 16.625 8.75ZM16.625 3.5C16.9711 3.5 17.3095 3.60264 17.5972 3.79493C17.885 3.98722 18.1093 4.26053 18.2418 4.58031C18.3742 4.90008 18.4089 5.25194 18.3414 5.59141C18.2738 5.93088 18.1072 6.2427 17.8624 6.48744C17.6177 6.73218 17.3059 6.89885 16.9664 6.96638C16.6269 7.0339 16.2751 6.99924 15.9553 6.86679C15.6355 6.73434 15.3622 6.51004 15.1699 6.22225C14.9776 5.93446 14.875 5.59612 14.875 5.25C14.875 4.78587 15.0594 4.34075 15.3876 4.01256C15.7157 3.68438 16.1609 3.5 16.625 3.5ZM23.625 15.75C23.625 15.9821 23.5328 16.2046 23.3687 16.3687C23.2046 16.5328 22.9821 16.625 22.75 16.625C18.888 16.625 16.9586 14.677 15.4087 13.1119C15.1091 12.8089 14.8225 12.5213 14.5337 12.2544L13.0648 15.6319L17.1336 18.538C17.2469 18.6189 17.3393 18.7258 17.403 18.8496C17.4668 18.9735 17.5 19.1107 17.5 19.25V25.375C17.5 25.6071 17.4078 25.8296 17.2437 25.9937C17.0796 26.1578 16.8571 26.25 16.625 26.25C16.3929 26.25 16.1704 26.1578 16.0063 25.9937C15.8422 25.8296 15.75 25.6071 15.75 25.375V19.7006L12.3517 17.2725L8.67781 25.7239C8.60981 25.8803 8.4976 26.0134 8.35498 26.1069C8.21235 26.2003 8.04552 26.2501 7.875 26.25C7.75484 26.2503 7.63597 26.2253 7.52609 26.1767C7.31338 26.0843 7.14609 25.9111 7.06098 25.6954C6.97586 25.4796 6.97989 25.2389 7.07218 25.0261L12.9872 11.4231C11.9689 11.2427 10.6991 11.5544 9.19187 12.3616C7.98984 13.0246 6.86795 13.8235 5.84828 14.7427C5.67808 14.8951 5.45499 14.9749 5.22671 14.9651C4.99842 14.9552 4.78305 14.8565 4.62663 14.6899C4.47021 14.5233 4.38515 14.3022 4.38963 14.0737C4.39412 13.8453 4.48779 13.6276 4.65062 13.4673C4.92406 13.2103 11.398 7.20781 15.4481 10.7242C15.867 11.0873 16.2662 11.4898 16.6512 11.8803C18.177 13.4203 19.6175 14.875 22.75 14.875C22.9821 14.875 23.2046 14.9672 23.3687 15.1313C23.5328 15.2954 23.625 15.5179 23.625 15.75Z" fill="#2B64BA"/>
</svg>
