<svg width="28" height="28" viewBox="0 0 28 28" fill="none" xmlns="http://www.w3.org/2000/svg">
<path d="M17.5001 4.375C17.5001 3.68277 17.2948 3.00608 16.9102 2.43051C16.5256 1.85493 15.979 1.40633 15.3395 1.14142C14.6999 0.876516 13.9962 0.807205 13.3173 0.942253C12.6383 1.0773 12.0147 1.41064 11.5252 1.90013C11.0357 2.38961 10.7024 3.01325 10.5673 3.69219C10.4323 4.37112 10.5016 5.07485 10.7665 5.71439C11.0314 6.35394 11.48 6.90056 12.0556 7.28515C12.6311 7.66973 13.3078 7.875 14.0001 7.875C14.9283 7.875 15.8186 7.50625 16.4749 6.84988C17.1313 6.1935 17.5001 5.30326 17.5001 4.375ZM14.0001 6.125C13.654 6.125 13.3156 6.02237 13.0278 5.83007C12.74 5.63778 12.5157 5.36447 12.3833 5.0447C12.2508 4.72493 12.2162 4.37306 12.2837 4.03359C12.3512 3.69413 12.5179 3.38231 12.7626 3.13756C13.0074 2.89282 13.3192 2.72615 13.6587 2.65863C13.9981 2.5911 14.35 2.62576 14.6698 2.75821C14.9895 2.89067 15.2628 3.11497 15.4551 3.40275C15.6474 3.69054 15.7501 4.02888 15.7501 4.375C15.7501 4.83913 15.5657 5.28425 15.2375 5.61244C14.9093 5.94063 14.4642 6.125 14.0001 6.125ZM25.3204 9.59328C25.2208 9.10324 24.9532 8.66337 24.5637 8.34964C24.1743 8.03592 23.6876 7.86804 23.1876 7.875H4.81257C4.31391 7.87499 3.83021 8.04535 3.44162 8.35785C3.05303 8.67036 2.78287 9.10625 2.67591 9.5933C2.56896 10.0804 2.63162 10.5893 2.85351 11.0359C3.07541 11.4825 3.44322 11.8398 3.89601 12.0488H3.91022L9.46101 14.4933L7.16413 23.2127C6.9238 23.7421 6.90361 24.3452 7.10801 24.8895C7.31241 25.4338 7.72466 25.8746 8.25405 26.1149C8.78345 26.3553 9.38663 26.3754 9.93092 26.171C10.4752 25.9666 10.916 25.5544 11.1563 25.025L14.0001 20.1173L16.8438 25.025C17.0965 25.5318 17.536 25.9209 18.0697 26.1104C18.6034 26.2998 19.1898 26.2749 19.7055 26.0408C20.2212 25.8068 20.6261 25.3818 20.8349 24.8554C21.0437 24.3289 21.0402 23.742 20.8251 23.2181L18.5282 14.4988L24.079 12.0542H24.0932C24.5533 11.8523 24.928 11.4955 25.1522 11.0459C25.3764 10.5962 25.4359 10.0822 25.3204 9.59328ZM23.3735 10.4573L17.1468 13.1983C16.9562 13.2823 16.8018 13.4315 16.7113 13.6192C16.6209 13.8068 16.6004 14.0206 16.6535 14.222L19.1549 23.7344C19.1677 23.7853 19.1856 23.8348 19.2085 23.882C19.2452 23.9605 19.2578 24.0482 19.2446 24.1338C19.2315 24.2195 19.1932 24.2993 19.1346 24.3631C19.076 24.427 18.9998 24.472 18.9156 24.4925C18.8314 24.5129 18.743 24.5079 18.6616 24.4781C18.5529 24.4382 18.4644 24.3568 18.4155 24.2517C18.4045 24.2281 18.392 24.2051 18.3784 24.1828L14.7569 17.9375C14.68 17.8049 14.5696 17.6948 14.4368 17.6183C14.304 17.5418 14.1534 17.5016 14.0001 17.5016C13.8468 17.5016 13.6962 17.5418 13.5633 17.6183C13.4305 17.6948 13.3201 17.8049 13.2432 17.9375L9.62507 24.1773C9.61138 24.1996 9.59896 24.2226 9.58788 24.2463C9.53907 24.3513 9.45056 24.4328 9.34179 24.4727C9.26043 24.5025 9.17204 24.5075 9.08784 24.487C9.00365 24.4665 8.92742 24.4215 8.86884 24.3576C8.81026 24.2938 8.77196 24.214 8.7588 24.1283C8.74564 24.0427 8.75821 23.9551 8.79491 23.8766C8.81779 23.8293 8.83575 23.7798 8.84851 23.7289L11.3466 14.2188C11.3997 14.0173 11.3792 13.8036 11.2888 13.6159C11.1984 13.4282 11.044 13.279 10.8533 13.195L4.62663 10.4573C4.53725 10.4147 4.46498 10.343 4.42165 10.2539C4.37832 10.1649 4.36648 10.0638 4.38807 9.96711C4.40966 9.87046 4.4634 9.78399 4.54051 9.72185C4.61762 9.65971 4.71354 9.62556 4.81257 9.625H23.1876C23.2869 9.62482 23.3833 9.65844 23.461 9.72032C23.5387 9.7822 23.593 9.86868 23.615 9.96552C23.637 10.0624 23.6254 10.1638 23.5821 10.2532C23.5388 10.3426 23.4664 10.4146 23.3768 10.4573H23.3735Z" fill="#2B64BA"/>
</svg>
