<svg width="28" height="28" viewBox="0 0 28 28" fill="none" xmlns="http://www.w3.org/2000/svg">
<path d="M24.7034 11.2459C24.2911 10.815 23.8645 10.3709 23.7038 9.98047C23.555 9.62281 23.5462 9.03 23.5375 8.45578C23.5211 7.38828 23.5036 6.17859 22.6625 5.3375C21.8214 4.49641 20.6117 4.47891 19.5442 4.4625C18.97 4.45375 18.3772 4.445 18.0195 4.29625C17.6302 4.13547 17.185 3.70891 16.7541 3.29656C15.9994 2.57141 15.1419 1.75 14 1.75C12.8581 1.75 12.0017 2.57141 11.2459 3.29656C10.815 3.70891 10.3709 4.13547 9.98047 4.29625C9.625 4.445 9.03 4.45375 8.45578 4.4625C7.38828 4.47891 6.17859 4.49641 5.3375 5.3375C4.49641 6.17859 4.48438 7.38828 4.4625 8.45578C4.45375 9.03 4.445 9.62281 4.29625 9.98047C4.13547 10.3698 3.70891 10.815 3.29656 11.2459C2.57141 12.0006 1.75 12.8581 1.75 14C1.75 15.1419 2.57141 15.9983 3.29656 16.7541C3.70891 17.185 4.13547 17.6291 4.29625 18.0195C4.445 18.3772 4.45375 18.97 4.4625 19.5442C4.47891 20.6117 4.49641 21.8214 5.3375 22.6625C6.17859 23.5036 7.38828 23.5211 8.45578 23.5375C9.03 23.5462 9.62281 23.555 9.98047 23.7038C10.3698 23.8645 10.815 24.2911 11.2459 24.7034C12.0006 25.4286 12.8581 26.25 14 26.25C15.1419 26.25 15.9983 25.4286 16.7541 24.7034C17.185 24.2911 17.6291 23.8645 18.0195 23.7038C18.3772 23.555 18.97 23.5462 19.5442 23.5375C20.6117 23.5211 21.8214 23.5036 22.6625 22.6625C23.5036 21.8214 23.5211 20.6117 23.5375 19.5442C23.5462 18.97 23.555 18.3772 23.7038 18.0195C23.8645 17.6302 24.2911 17.185 24.7034 16.7541C25.4286 15.9994 26.25 15.1419 26.25 14C26.25 12.8581 25.4286 12.0017 24.7034 11.2459ZM23.4402 15.5433C22.9163 16.0902 22.3737 16.6556 22.0861 17.3502C21.8105 18.0173 21.7984 18.7797 21.7875 19.518C21.7766 20.2836 21.7645 21.0853 21.4244 21.4244C21.0842 21.7634 20.288 21.7766 19.518 21.7875C18.7797 21.7984 18.0173 21.8105 17.3502 22.0861C16.6556 22.3737 16.0902 22.9163 15.5433 23.4402C14.9964 23.9641 14.4375 24.5 14 24.5C13.5625 24.5 12.9992 23.9619 12.4567 23.4402C11.9142 22.9184 11.3444 22.3737 10.6498 22.0861C9.98266 21.8105 9.22031 21.7984 8.48203 21.7875C7.71641 21.7766 6.91469 21.7645 6.57562 21.4244C6.23656 21.0842 6.22344 20.288 6.2125 19.518C6.20156 18.7797 6.18953 18.0173 5.91391 17.3502C5.62625 16.6556 5.08375 16.0902 4.55984 15.5433C4.03594 14.9964 3.5 14.4375 3.5 14C3.5 13.5625 4.03812 12.9992 4.55984 12.4567C5.08156 11.9142 5.62625 11.3444 5.91391 10.6498C6.18953 9.98266 6.20156 9.22031 6.2125 8.48203C6.22344 7.71641 6.23547 6.91469 6.57562 6.57562C6.91578 6.23656 7.71203 6.22344 8.48203 6.2125C9.22031 6.20156 9.98266 6.18953 10.6498 5.91391C11.3444 5.62625 11.9098 5.08375 12.4567 4.55984C13.0036 4.03594 13.5625 3.5 14 3.5C14.4375 3.5 15.0008 4.03812 15.5433 4.55984C16.0858 5.08156 16.6556 5.62625 17.3502 5.91391C18.0173 6.18953 18.7797 6.20156 19.518 6.2125C20.2836 6.22344 21.0853 6.23547 21.4244 6.57562C21.7634 6.91578 21.7766 7.71203 21.7875 8.48203C21.7984 9.22031 21.8105 9.98266 22.0861 10.6498C22.3737 11.3444 22.9163 11.9098 23.4402 12.4567C23.9641 13.0036 24.5 13.5625 24.5 14C24.5 14.4375 23.9619 15.0008 23.4402 15.5433ZM15.3125 19.6875C15.3125 19.9471 15.2355 20.2008 15.0913 20.4167C14.9471 20.6325 14.7421 20.8008 14.5023 20.9001C14.2624 20.9994 13.9985 21.0254 13.7439 20.9748C13.4893 20.9241 13.2555 20.7991 13.0719 20.6156C12.8884 20.432 12.7634 20.1982 12.7127 19.9436C12.6621 19.689 12.6881 19.4251 12.7874 19.1852C12.8867 18.9454 13.055 18.7404 13.2708 18.5962C13.4867 18.452 13.7404 18.375 14 18.375C14.3481 18.375 14.6819 18.5133 14.9281 18.7594C15.1742 19.0056 15.3125 19.3394 15.3125 19.6875ZM18.375 11.8125C18.375 13.7134 16.87 15.3048 14.875 15.6712V15.75C14.875 15.9821 14.7828 16.2046 14.6187 16.3687C14.4546 16.5328 14.2321 16.625 14 16.625C13.7679 16.625 13.5454 16.5328 13.3813 16.3687C13.2172 16.2046 13.125 15.9821 13.125 15.75V14.875C13.125 14.6429 13.2172 14.4204 13.3813 14.2563C13.5454 14.0922 13.7679 14 14 14C15.447 14 16.625 13.0156 16.625 11.8125C16.625 10.6094 15.447 9.625 14 9.625C12.553 9.625 11.375 10.6094 11.375 11.8125V12.25C11.375 12.4821 11.2828 12.7046 11.1187 12.8687C10.9546 13.0328 10.7321 13.125 10.5 13.125C10.2679 13.125 10.0454 13.0328 9.88128 12.8687C9.71719 12.7046 9.625 12.4821 9.625 12.25V11.8125C9.625 9.64141 11.5872 7.875 14 7.875C16.4128 7.875 18.375 9.64141 18.375 11.8125Z" fill="#2B64BA"/>
</svg>
