<svg width="28" height="28" viewBox="0 0 28 28" fill="none" xmlns="http://www.w3.org/2000/svg">
<path d="M14 2.625C11.7502 2.625 9.551 3.29213 7.68039 4.54203C5.80978 5.79193 4.35182 7.56847 3.49088 9.64698C2.62993 11.7255 2.40467 14.0126 2.84357 16.2192C3.28248 18.4257 4.36584 20.4525 5.95667 22.0433C7.54749 23.6342 9.57432 24.7175 11.7809 25.1564C13.9874 25.5953 16.2745 25.3701 18.353 24.5091C20.4315 23.6482 22.2081 22.1902 23.458 20.3196C24.7079 18.449 25.375 16.2498 25.375 14C25.3718 10.9841 24.1724 8.09271 22.0398 5.96018C19.9073 3.82764 17.0159 2.62818 14 2.625ZM14 23.625C12.0964 23.625 10.2355 23.0605 8.65264 22.0029C7.06982 20.9453 5.83616 19.4421 5.10766 17.6833C4.37917 15.9246 4.18856 13.9893 4.55995 12.1223C4.93133 10.2552 5.84802 8.54018 7.1941 7.1941C8.54018 5.84802 10.2552 4.93132 12.1223 4.55994C13.9893 4.18856 15.9246 4.37917 17.6833 5.10766C19.4421 5.83615 20.9453 7.06981 22.0029 8.65264C23.0605 10.2355 23.625 12.0964 23.625 14C23.6221 16.5518 22.6071 18.9983 20.8027 20.8027C18.9983 22.6071 16.5518 23.6221 14 23.625ZM8.75 11.8125C8.75 11.5529 8.82698 11.2992 8.9712 11.0833C9.11542 10.8675 9.3204 10.6992 9.56023 10.5999C9.80006 10.5006 10.064 10.4746 10.3186 10.5252C10.5732 10.5759 10.807 10.7009 10.9906 10.8844C11.1741 11.068 11.2991 11.3018 11.3498 11.5564C11.4004 11.811 11.3744 12.0749 11.2751 12.3148C11.1758 12.5546 11.0075 12.7596 10.7917 12.9038C10.5759 13.048 10.3221 13.125 10.0625 13.125C9.71441 13.125 9.38057 12.9867 9.13443 12.7406C8.88829 12.4944 8.75 12.1606 8.75 11.8125ZM19.25 11.8125C19.25 12.0721 19.173 12.3258 19.0288 12.5417C18.8846 12.7575 18.6796 12.9258 18.4398 13.0251C18.1999 13.1244 17.936 13.1504 17.6814 13.0998C17.4268 13.0491 17.193 12.9241 17.0094 12.7406C16.8259 12.557 16.7009 12.3232 16.6502 12.0686C16.5996 11.814 16.6256 11.5501 16.7249 11.3102C16.8243 11.0704 16.9925 10.8654 17.2083 10.7212C17.4242 10.577 17.6779 10.5 17.9375 10.5C18.2856 10.5 18.6194 10.6383 18.8656 10.8844C19.1117 11.1306 19.25 11.4644 19.25 11.8125ZM19.133 17.0625C18.0075 19.0083 16.1361 20.125 14 20.125C11.8639 20.125 9.9936 19.0094 8.86813 17.0625C8.80482 16.9629 8.76231 16.8515 8.74316 16.7351C8.724 16.6186 8.7286 16.4995 8.75668 16.3849C8.78476 16.2703 8.83573 16.1625 8.90653 16.0681C8.97733 15.9737 9.0665 15.8946 9.16867 15.8355C9.27084 15.7765 9.3839 15.7387 9.50105 15.7245C9.61819 15.7102 9.73701 15.7199 9.85035 15.7527C9.96369 15.7856 10.0692 15.8411 10.1605 15.9158C10.2519 15.9905 10.3272 16.0829 10.3819 16.1875C11.1989 17.5995 12.483 18.375 14 18.375C15.517 18.375 16.8011 17.5984 17.617 16.1875C17.7331 15.9865 17.9242 15.8398 18.1484 15.7797C18.3726 15.7196 18.6115 15.751 18.8125 15.867C19.0135 15.9831 19.1602 16.1742 19.2203 16.3984C19.2804 16.6226 19.249 16.8615 19.133 17.0625Z" fill="#2B64BA"/>
</svg>
