<svg width="28" height="28" viewBox="0 0 28 28" fill="none" xmlns="http://www.w3.org/2000/svg">
<path d="M14 2.625C11.7502 2.625 9.551 3.29213 7.68039 4.54203C5.80978 5.79193 4.35182 7.56847 3.49088 9.64698C2.62993 11.7255 2.40467 14.0126 2.84357 16.2192C3.28248 18.4257 4.36584 20.4525 5.95667 22.0433C7.54749 23.6342 9.57432 24.7175 11.7809 25.1564C13.9874 25.5953 16.2745 25.3701 18.353 24.5091C20.4315 23.6482 22.2081 22.1902 23.458 20.3196C24.7079 18.449 25.375 16.2498 25.375 14C25.3718 10.9841 24.1724 8.09271 22.0398 5.96018C19.9073 3.82764 17.0159 2.62818 14 2.625ZM14 23.625C12.0964 23.625 10.2355 23.0605 8.65264 22.0029C7.06982 20.9453 5.83616 19.4421 5.10766 17.6833C4.37917 15.9246 4.18856 13.9893 4.55995 12.1223C4.93133 10.2552 5.84802 8.54018 7.1941 7.1941C8.54018 5.84802 10.2552 4.93132 12.1223 4.55994C13.9893 4.18856 15.9246 4.37917 17.6833 5.10766C19.4421 5.83615 20.9453 7.06981 22.0029 8.65264C23.0605 10.2355 23.625 12.0964 23.625 14C23.6221 16.5518 22.6071 18.9983 20.8027 20.8027C18.9983 22.6071 16.5518 23.6221 14 23.625ZM8.75 11.8125C8.75 11.5529 8.82698 11.2992 8.9712 11.0833C9.11542 10.8675 9.3204 10.6992 9.56023 10.5999C9.80006 10.5006 10.064 10.4746 10.3186 10.5252C10.5732 10.5759 10.807 10.7009 10.9906 10.8844C11.1741 11.068 11.2991 11.3018 11.3498 11.5564C11.4004 11.811 11.3744 12.0749 11.2751 12.3148C11.1758 12.5546 11.0075 12.7596 10.7917 12.9038C10.5759 13.048 10.3221 13.125 10.0625 13.125C9.71441 13.125 9.38057 12.9867 9.13443 12.7406C8.88829 12.4944 8.75 12.1606 8.75 11.8125ZM16.625 11.8125C16.625 11.5529 16.702 11.2992 16.8462 11.0833C16.9904 10.8675 17.1954 10.6992 17.4352 10.5999C17.6751 10.5006 17.939 10.4746 18.1936 10.5252C18.4482 10.5759 18.682 10.7009 18.8656 10.8844C19.0491 11.068 19.1741 11.3018 19.2248 11.5564C19.2754 11.811 19.2494 12.0749 19.1501 12.3148C19.0508 12.5546 18.8825 12.7596 18.6667 12.9038C18.4508 13.048 18.1971 13.125 17.9375 13.125C17.5894 13.125 17.2556 12.9867 17.0094 12.7406C16.7633 12.4944 16.625 12.1606 16.625 11.8125ZM20.125 18.375C20.125 18.6071 20.0328 18.8296 19.8687 18.9937C19.7046 19.1578 19.4821 19.25 19.25 19.25C18.1563 19.25 17.6028 18.5128 17.2375 18.025C16.9094 17.5875 16.8088 17.5 16.625 17.5C16.4413 17.5 16.3439 17.5831 16.0125 18.025C15.6472 18.5128 15.0938 19.25 14 19.25C12.9063 19.25 12.3528 18.5128 11.9875 18.025C11.6594 17.5875 11.5588 17.5 11.375 17.5C11.1913 17.5 11.0939 17.5831 10.7625 18.025C10.3972 18.5128 9.84375 19.25 8.75 19.25C8.51794 19.25 8.29538 19.1578 8.13129 18.9937C7.96719 18.8296 7.875 18.6071 7.875 18.375C7.875 18.1429 7.96719 17.9204 8.13129 17.7563C8.29538 17.5922 8.51794 17.5 8.75 17.5C8.93375 17.5 9.0311 17.4169 9.3625 16.975C9.72782 16.4872 10.2813 15.75 11.375 15.75C12.4688 15.75 13.0222 16.4872 13.3875 16.975C13.7156 17.4125 13.8163 17.5 14 17.5C14.1838 17.5 14.2811 17.4169 14.6125 16.975C14.9778 16.4872 15.5313 15.75 16.625 15.75C17.7188 15.75 18.2722 16.4872 18.6375 16.975C18.9656 17.4125 19.0663 17.5 19.25 17.5C19.4821 17.5 19.7046 17.5922 19.8687 17.7563C20.0328 17.9204 20.125 18.1429 20.125 18.375Z" fill="#2B64BA"/>
</svg>
