<svg width="28" height="28" viewBox="0 0 28 28" fill="none" xmlns="http://www.w3.org/2000/svg">
<path d="M19.25 15.3125C19.25 15.5721 19.173 15.8258 19.0288 16.0417C18.8846 16.2575 18.6796 16.4257 18.4398 16.5251C18.1999 16.6244 17.936 16.6504 17.6814 16.5998C17.4268 16.5491 17.193 16.4241 17.0094 16.2405C16.8259 16.057 16.7008 15.8231 16.6502 15.5685C16.5996 15.3139 16.6256 15.05 16.7249 14.8102C16.8242 14.5704 16.9925 14.3654 17.2083 14.2212C17.4241 14.077 17.6779 14 17.9375 14C18.2856 14 18.6194 14.1383 18.8656 14.3844C19.1117 14.6305 19.25 14.9644 19.25 15.3125ZM14 10.0625C14 9.80289 13.923 9.54913 13.7788 9.33329C13.6346 9.11745 13.4296 8.94922 13.1898 8.84988C12.9499 8.75054 12.686 8.72455 12.4314 8.77519C12.1768 8.82584 11.943 8.95084 11.7594 9.1344C11.5759 9.31795 11.4508 9.55182 11.4002 9.80642C11.3496 10.061 11.3756 10.3249 11.4749 10.5647C11.5742 10.8046 11.7425 11.0096 11.9583 11.1538C12.1741 11.298 12.4279 11.375 12.6875 11.375C13.0356 11.375 13.3694 11.2367 13.6156 10.9906C13.8617 10.7444 14 10.4106 14 10.0625ZM21.9844 5.90622C19.8757 3.85615 17.055 2.70243 14.1141 2.68717C11.1732 2.6719 8.34069 3.79626 6.21088 5.82433C4.08107 7.8524 2.81952 10.6265 2.69094 13.5647C2.56236 16.5028 3.57674 19.3766 5.52123 21.5829C5.59727 21.6706 5.68999 21.7424 5.79401 21.7939C5.89803 21.8454 6.01126 21.8757 6.1271 21.883C6.24295 21.8904 6.35909 21.8746 6.46878 21.8366C6.57846 21.7986 6.67949 21.7392 6.76598 21.6617C6.85247 21.5843 6.92269 21.4905 6.97255 21.3857C7.02241 21.2808 7.05092 21.1671 7.05641 21.0512C7.0619 20.9352 7.04427 20.8194 7.00454 20.7103C6.9648 20.6012 6.90377 20.5012 6.82499 20.4159C5.58642 19.031 4.77517 17.3172 4.48916 15.4813C4.20315 13.6455 4.45461 11.7661 5.21318 10.07C5.97175 8.37395 7.20501 6.93369 8.7641 5.92307C10.3232 4.91246 12.1415 4.37469 13.9994 4.37469C15.8574 4.37469 17.6757 4.91246 19.2348 5.92307C20.7939 6.93369 22.0271 8.37395 22.7857 10.07C23.5443 11.7661 23.7957 13.6455 23.5097 15.4813C23.2237 17.3172 22.4125 19.031 21.1739 20.4159C21.0191 20.5889 20.9395 20.8164 20.9524 21.0481C20.9653 21.2799 21.0698 21.4971 21.2428 21.6518C21.4158 21.8066 21.6433 21.8863 21.875 21.8734C22.1068 21.8604 22.324 21.756 22.4787 21.5829C24.4239 19.4057 25.4575 16.5639 25.3655 13.6458C25.2734 10.7276 24.0629 7.95655 21.9844 5.90622ZM16.625 18.375H14.875C12.4972 18.375 9.62499 16.4237 9.62499 14C9.62522 13.7552 9.64534 13.5109 9.68514 13.2693C9.70527 13.1555 9.70265 13.0388 9.67742 12.926C9.6522 12.8132 9.60488 12.7065 9.53819 12.6121C9.4715 12.5177 9.38676 12.4375 9.28888 12.376C9.19099 12.3145 9.0819 12.273 8.96789 12.254C8.85389 12.2349 8.73723 12.2386 8.62467 12.2649C8.5121 12.2911 8.40586 12.3394 8.31207 12.407C8.21828 12.4746 8.13881 12.56 8.07824 12.6585C8.01768 12.7569 7.97722 12.8664 7.9592 12.9806C7.90321 13.3175 7.87504 13.6584 7.87499 14C7.87499 15.6275 8.69092 17.1861 10.1719 18.3914C11.5281 19.4928 13.242 20.125 14.875 20.125H16.625C16.857 20.125 17.0796 20.2172 17.2437 20.3813C17.4078 20.5453 17.5 20.7679 17.5 21C17.5 21.232 17.4078 21.4546 17.2437 21.6187C17.0796 21.7828 16.857 21.875 16.625 21.875H10.5C9.80379 21.875 9.13611 22.1515 8.64383 22.6438C8.15155 23.1361 7.87499 23.8038 7.87499 24.5C7.87499 25.1962 8.15155 25.8638 8.64383 26.3561C9.13611 26.8484 9.80379 27.125 10.5 27.125C10.732 27.125 10.9546 27.0328 11.1187 26.8687C11.2828 26.7046 11.375 26.482 11.375 26.25C11.375 26.0179 11.2828 25.7953 11.1187 25.6313C10.9546 25.4672 10.732 25.375 10.5 25.375C10.2679 25.375 10.0454 25.2828 9.88127 25.1187C9.71717 24.9546 9.62499 24.732 9.62499 24.5C9.62499 24.2679 9.71717 24.0453 9.88127 23.8813C10.0454 23.7172 10.2679 23.625 10.5 23.625H16.625C17.3212 23.625 17.9889 23.3484 18.4811 22.8561C18.9734 22.3638 19.25 21.6962 19.25 21C19.25 20.3038 18.9734 19.6361 18.4811 19.1438C17.9889 18.6515 17.3212 18.375 16.625 18.375Z" fill="#2B64BA"/>
</svg>
