<svg width="28" height="28" viewBox="0 0 28 28" fill="none" xmlns="http://www.w3.org/2000/svg">
<path d="M19.1319 17.0625C18.0064 19.0083 16.1361 20.125 14 20.125C11.8639 20.125 9.99359 19.0094 8.86703 17.0625C8.80958 16.963 8.77229 16.8531 8.7573 16.7392C8.74232 16.6252 8.74992 16.5094 8.77968 16.3984C8.80943 16.2874 8.86077 16.1833 8.93074 16.0922C9.00072 16.001 9.08796 15.9245 9.1875 15.8671C9.28704 15.8096 9.39692 15.7723 9.51086 15.7573C9.62481 15.7423 9.7406 15.7499 9.85161 15.7797C9.96262 15.8095 10.0667 15.8608 10.1578 15.9308C10.249 16.0007 10.3255 16.088 10.383 16.1875C11.1989 17.5996 12.483 18.375 14 18.375C15.517 18.375 16.8011 17.5985 17.6181 16.1875C17.6728 16.083 17.7481 15.9905 17.8395 15.9158C17.9308 15.8411 18.0363 15.7856 18.1497 15.7528C18.263 15.7199 18.3818 15.7103 18.499 15.7245C18.6161 15.7387 18.7292 15.7765 18.8313 15.8356C18.9335 15.8946 19.0227 15.9737 19.0935 16.0681C19.1643 16.1626 19.2152 16.2703 19.2433 16.3849C19.2714 16.4996 19.276 16.6187 19.2568 16.7351C19.2377 16.8516 19.1952 16.9629 19.1319 17.0625ZM25.375 14C25.3755 15.1328 25.2074 16.2593 24.8763 17.3425C24.834 17.4793 24.7589 17.6036 24.6575 17.7046L17.7045 24.6575C17.6041 24.7592 17.4801 24.8343 17.3436 24.8763C15.055 25.5801 12.6028 25.5438 10.3361 24.7725C8.06934 24.0013 6.10378 22.5345 4.71934 20.581C3.3349 18.6275 2.60218 16.287 2.62554 13.8928C2.6489 11.4986 3.42716 9.1728 4.84946 7.2467C6.27175 5.3206 8.26556 3.89242 10.5469 3.16558C12.8282 2.43874 15.2807 2.4503 17.5551 3.19861C19.8295 3.94693 21.8098 5.39384 23.2138 7.33326C24.6179 9.27268 25.3742 11.6057 25.375 14ZM23.625 14C23.6225 11.9864 22.9878 10.0245 21.8104 8.39098C20.633 6.7575 18.9723 5.53498 17.0628 4.89594C15.1533 4.2569 13.0914 4.23361 11.1679 4.82935C9.2445 5.42509 7.55669 6.60978 6.34269 8.21625C5.12868 9.82272 4.44979 11.7698 4.4018 13.7829C4.35381 15.7959 4.93916 17.7731 6.07523 19.4356C7.21131 21.0981 8.84075 22.3619 10.7336 23.0486C12.6265 23.7353 14.6872 23.8103 16.625 23.263L23.263 16.625C23.504 15.7709 23.6259 14.8875 23.625 14ZM10.0625 13.125C10.3221 13.125 10.5758 13.048 10.7917 12.9038C11.0075 12.7596 11.1758 12.5546 11.2751 12.3148C11.3744 12.075 11.4004 11.8111 11.3498 11.5565C11.2991 11.3019 11.1741 11.068 10.9906 10.8844C10.807 10.7009 10.5732 10.5759 10.3186 10.5252C10.064 10.4746 9.80006 10.5006 9.56023 10.5999C9.3204 10.6993 9.11541 10.8675 8.9712 11.0833C8.82698 11.2992 8.75 11.5529 8.75 11.8125C8.75 12.1606 8.88828 12.4945 9.13442 12.7406C9.38056 12.9867 9.7144 13.125 10.0625 13.125ZM17.9375 10.5C17.6779 10.5 17.4242 10.577 17.2083 10.7212C16.9925 10.8654 16.8242 11.0704 16.7249 11.3103C16.6256 11.5501 16.5996 11.814 16.6502 12.0686C16.7009 12.3232 16.8259 12.557 17.0094 12.7406C17.193 12.9242 17.4268 13.0492 17.6814 13.0998C17.936 13.1504 18.1999 13.1245 18.4398 13.0251C18.6796 12.9258 18.8846 12.7575 19.0288 12.5417C19.173 12.3259 19.25 12.0721 19.25 11.8125C19.25 11.4644 19.1117 11.1306 18.8656 10.8844C18.6194 10.6383 18.2856 10.5 17.9375 10.5Z" fill="#2B64BA"/>
</svg>
