<svg width="28" height="28" viewBox="0 0 28 28" fill="none" xmlns="http://www.w3.org/2000/svg">
<path d="M14 2.625C11.7502 2.625 9.551 3.29213 7.68039 4.54203C5.80978 5.79193 4.35182 7.56847 3.49088 9.64698C2.62993 11.7255 2.40467 14.0126 2.84357 16.2192C3.28248 18.4257 4.36584 20.4525 5.95667 22.0433C7.54749 23.6342 9.57432 24.7175 11.7809 25.1564C13.9874 25.5953 16.2745 25.3701 18.353 24.5091C20.4315 23.6482 22.2081 22.1902 23.458 20.3196C24.7079 18.449 25.375 16.2498 25.375 14C25.3718 10.9841 24.1724 8.09271 22.0398 5.96018C19.9073 3.82764 17.0159 2.62818 14 2.625ZM14 23.625C12.0964 23.625 10.2355 23.0605 8.65264 22.0029C7.06982 20.9453 5.83616 19.4421 5.10766 17.6833C4.37917 15.9246 4.18856 13.9893 4.55995 12.1223C4.93133 10.2552 5.84802 8.54018 7.1941 7.1941C8.54018 5.84802 10.2552 4.93132 12.1223 4.55994C13.9893 4.18856 15.9246 4.37917 17.6833 5.10766C19.4421 5.83615 20.9453 7.06981 22.0029 8.65264C23.0605 10.2355 23.625 12.0964 23.625 14C23.6221 16.5518 22.6071 18.9983 20.8027 20.8027C18.9983 22.6071 16.5518 23.6221 14 23.625ZM8.75 11.8125C8.75 11.5529 8.82698 11.2992 8.9712 11.0833C9.11542 10.8675 9.3204 10.6992 9.56023 10.5999C9.80006 10.5006 10.064 10.4746 10.3186 10.5252C10.5732 10.5759 10.807 10.7009 10.9906 10.8844C11.1741 11.068 11.2991 11.3018 11.3498 11.5564C11.4004 11.811 11.3744 12.0749 11.2751 12.3148C11.1758 12.5546 11.0075 12.7596 10.7917 12.9038C10.5759 13.048 10.3221 13.125 10.0625 13.125C9.71441 13.125 9.38057 12.9867 9.13443 12.7406C8.88829 12.4944 8.75 12.1606 8.75 11.8125ZM19.25 11.8125C19.25 12.0721 19.173 12.3258 19.0288 12.5417C18.8846 12.7575 18.6796 12.9258 18.4398 13.0251C18.1999 13.1244 17.936 13.1504 17.6814 13.0998C17.4268 13.0491 17.193 12.9241 17.0094 12.7406C16.8259 12.557 16.7009 12.3232 16.6502 12.0686C16.5996 11.814 16.6256 11.5501 16.7249 11.3102C16.8243 11.0704 16.9925 10.8654 17.2083 10.7212C17.4242 10.577 17.6779 10.5 17.9375 10.5C18.2856 10.5 18.6194 10.6383 18.8656 10.8844C19.1117 11.1306 19.25 11.4644 19.25 11.8125ZM19.1319 18.8125C19.1952 18.9121 19.2377 19.0235 19.2569 19.1399C19.276 19.2563 19.2714 19.3755 19.2433 19.4901C19.2153 19.6047 19.1643 19.7125 19.0935 19.8069C19.0227 19.9013 18.9335 19.9804 18.8313 20.0395C18.7292 20.0985 18.6161 20.1363 18.499 20.1505C18.3818 20.1648 18.263 20.1551 18.1497 20.1223C18.0363 20.0894 17.9308 20.0339 17.8395 19.9592C17.7481 19.8845 17.6728 19.7921 17.6181 19.6875C16.8011 18.2755 15.517 17.5 14 17.5C12.483 17.5 11.1989 18.2766 10.3819 19.6875C10.3272 19.7921 10.2519 19.8845 10.1605 19.9592C10.0692 20.0339 9.96369 20.0894 9.85035 20.1223C9.73701 20.1551 9.61819 20.1648 9.50105 20.1505C9.3839 20.1363 9.27084 20.0985 9.16867 20.0395C9.0665 19.9804 8.97733 19.9013 8.90653 19.8069C8.83573 19.7125 8.78476 19.6047 8.75668 19.4901C8.7286 19.3755 8.724 19.2563 8.74316 19.1399C8.76231 19.0235 8.80482 18.9121 8.86813 18.8125C9.9936 16.8667 11.8639 15.75 14 15.75C16.1361 15.75 18.0064 16.8656 19.1319 18.8125Z" fill="#2B64BA"/>
</svg>
