<svg width="28" height="28" viewBox="0 0 28 28" fill="none" xmlns="http://www.w3.org/2000/svg">
<path d="M14 2.625C11.7502 2.625 9.551 3.29213 7.68039 4.54203C5.80978 5.79193 4.35182 7.56847 3.49088 9.64698C2.62993 11.7255 2.40467 14.0126 2.84357 16.2192C3.28248 18.4257 4.36584 20.4525 5.95667 22.0433C7.54749 23.6342 9.57432 24.7175 11.7809 25.1564C13.9874 25.5953 16.2745 25.3701 18.353 24.5091C20.4315 23.6482 22.2081 22.1902 23.458 20.3196C24.7079 18.449 25.375 16.2498 25.375 14C25.3718 10.9841 24.1724 8.09271 22.0398 5.96018C19.9073 3.82764 17.0159 2.62818 14 2.625ZM14 23.625C12.0964 23.625 10.2355 23.0605 8.65264 22.0029C7.06982 20.9453 5.83616 19.4421 5.10766 17.6833C4.37917 15.9246 4.18856 13.9893 4.55995 12.1223C4.93133 10.2552 5.84802 8.54018 7.1941 7.1941C8.54018 5.84802 10.2552 4.93132 12.1223 4.55994C13.9893 4.18856 15.9246 4.37917 17.6833 5.10766C19.4421 5.83615 20.9453 7.06981 22.0029 8.65264C23.0605 10.2355 23.625 12.0964 23.625 14C23.6221 16.5518 22.6071 18.9983 20.8027 20.8027C18.9983 22.6071 16.5518 23.6221 14 23.625ZM20.7441 13.3809C20.8254 13.4622 20.8899 13.5587 20.9338 13.665C20.9778 13.7712 21.0005 13.885 21.0005 14C21.0005 14.115 20.9778 14.2288 20.9338 14.335C20.8899 14.4413 20.8254 14.5378 20.7441 14.6191C20.6628 14.7004 20.5663 14.7648 20.46 14.8088C20.3538 14.8528 20.24 14.8755 20.125 14.8755C20.01 14.8755 19.8962 14.8528 19.79 14.8088C19.6838 14.7648 19.5872 14.7004 19.5059 14.6191L18.375 13.487L17.2441 14.6191C17.0799 14.7832 16.8572 14.8755 16.625 14.8755C16.3928 14.8755 16.1701 14.7832 16.0059 14.6191C15.8418 14.4549 15.7495 14.2322 15.7495 14C15.7495 13.7678 15.8418 13.5451 16.0059 13.3809L17.138 12.25L16.0059 11.1191C15.8418 10.9549 15.7495 10.7322 15.7495 10.5C15.7495 10.2678 15.8418 10.0451 16.0059 9.88094C16.1701 9.71675 16.3928 9.62451 16.625 9.62451C16.8572 9.62451 17.0799 9.71675 17.2441 9.88094L18.375 11.013L19.5059 9.88094C19.5872 9.79964 19.6838 9.73515 19.79 9.69115C19.8962 9.64716 20.01 9.62451 20.125 9.62451C20.24 9.62451 20.3538 9.64716 20.46 9.69115C20.5663 9.73515 20.6628 9.79964 20.7441 9.88094C20.8254 9.96223 20.8899 10.0587 20.9338 10.165C20.9778 10.2712 21.0005 10.385 21.0005 10.5C21.0005 10.615 20.9778 10.7288 20.9338 10.835C20.8899 10.9413 20.8254 11.0378 20.7441 11.1191L19.612 12.25L20.7441 13.3809ZM11.9941 11.1191L10.862 12.25L11.9941 13.3809C12.1583 13.5451 12.2505 13.7678 12.2505 14C12.2505 14.2322 12.1583 14.4549 11.9941 14.6191C11.8299 14.7832 11.6072 14.8755 11.375 14.8755C11.1428 14.8755 10.9201 14.7832 10.7559 14.6191L9.625 13.487L8.49407 14.6191C8.32988 14.7832 8.1072 14.8755 7.875 14.8755C7.64281 14.8755 7.42013 14.7832 7.25594 14.6191C7.09176 14.4549 6.99952 14.2322 6.99952 14C6.99952 13.7678 7.09176 13.5451 7.25594 13.3809L8.38797 12.25L7.25594 11.1191C7.09176 10.9549 6.99952 10.7322 6.99952 10.5C6.99952 10.2678 7.09176 10.0451 7.25594 9.88094C7.42013 9.71675 7.64281 9.62451 7.875 9.62451C8.1072 9.62451 8.32988 9.71675 8.49407 9.88094L9.625 11.013L10.7559 9.88094C10.9201 9.71675 11.1428 9.62451 11.375 9.62451C11.6072 9.62451 11.8299 9.71675 11.9941 9.88094C12.1583 10.0451 12.2505 10.2678 12.2505 10.5C12.2505 10.7322 12.1583 10.9549 11.9941 11.1191ZM15.3125 19.6875C15.3125 19.9471 15.2355 20.2008 15.0913 20.4167C14.9471 20.6325 14.7421 20.8008 14.5023 20.9001C14.2624 20.9994 13.9985 21.0254 13.7439 20.9748C13.4893 20.9241 13.2555 20.7991 13.0719 20.6156C12.8884 20.432 12.7634 20.1982 12.7127 19.9436C12.6621 19.689 12.6881 19.4251 12.7874 19.1852C12.8868 18.9454 13.055 18.7404 13.2708 18.5962C13.4867 18.452 13.7404 18.375 14 18.375C14.3481 18.375 14.6819 18.5133 14.9281 18.7594C15.1742 19.0056 15.3125 19.3394 15.3125 19.6875Z" fill="#2B64BA"/>
</svg>
