<svg width="28" height="28" viewBox="0 0 28 28" fill="none" xmlns="http://www.w3.org/2000/svg">
<path d="M10.0625 16.625C9.80292 16.625 9.54916 16.548 9.33332 16.4038C9.11748 16.2596 8.94925 16.0546 8.84991 15.8148C8.75057 15.5749 8.72458 15.311 8.77522 15.0564C8.82587 14.8018 8.95087 14.568 9.13443 14.3844C9.31798 14.2009 9.55185 14.0759 9.80645 14.0252C10.061 13.9746 10.3249 14.0006 10.5648 14.0999C10.8046 14.1992 11.0096 14.3675 11.1538 14.5833C11.298 14.7992 11.375 15.0529 11.375 15.3125C11.375 15.6606 11.2367 15.9944 10.9906 16.2406C10.7444 16.4867 10.4106 16.625 10.0625 16.625ZM17.9375 14C17.6779 14 17.4242 14.077 17.2083 14.2212C16.9925 14.3654 16.8243 14.5704 16.7249 14.8102C16.6256 15.0501 16.5996 15.314 16.6502 15.5686C16.7009 15.8232 16.8259 16.057 17.0094 16.2406C17.193 16.4241 17.4268 16.5491 17.6814 16.5998C17.936 16.6504 18.1999 16.6244 18.4398 16.5251C18.6796 16.4257 18.8846 16.2575 19.0288 16.0417C19.173 15.8258 19.25 15.5721 19.25 15.3125C19.25 14.9644 19.1117 14.6306 18.8656 14.3844C18.6194 14.1383 18.2856 14 17.9375 14ZM25.375 14C25.375 16.2498 24.7079 18.449 23.458 20.3196C22.2081 22.1902 20.4315 23.6482 18.353 24.5091C16.2745 25.3701 13.9874 25.5953 11.7809 25.1564C9.57432 24.7175 7.54749 23.6342 5.95667 22.0433C4.36584 20.4525 3.28248 18.4257 2.84357 16.2192C2.40467 14.0126 2.62993 11.7255 3.49088 9.64698C4.35182 7.56847 5.80978 5.79193 7.68039 4.54203C9.551 3.29213 11.7502 2.625 14 2.625C17.0159 2.62818 19.9073 3.82764 22.0398 5.96018C24.1724 8.09271 25.3718 10.9841 25.375 14ZM23.625 14C23.625 12.0964 23.0605 10.2355 22.0029 8.65264C20.9453 7.06981 19.4421 5.83615 17.6833 5.10766C15.9246 4.37917 13.9893 4.18856 12.1223 4.55994C10.2552 4.93132 8.54018 5.84802 7.1941 7.1941C5.84802 8.54018 4.93133 10.2552 4.55995 12.1223C4.18856 13.9893 4.37917 15.9246 5.10766 17.6833C5.83616 19.4421 7.06982 20.9453 8.65264 22.0029C10.2355 23.0605 12.0964 23.625 14 23.625C16.5518 23.6221 18.9983 22.6071 20.8027 20.8027C22.6071 18.9983 23.6221 16.5518 23.625 14ZM18.7644 8.89656L14 12.0739L9.23563 8.90203C9.04244 8.77323 8.80599 8.72646 8.57831 8.772C8.35063 8.81753 8.15036 8.95165 8.02157 9.14484C7.89277 9.33804 7.846 9.57448 7.89153 9.80216C7.93707 10.0298 8.07119 10.2301 8.26438 10.3589L13.5144 13.8589C13.6582 13.9548 13.8272 14.006 14 14.006C14.1729 14.006 14.3418 13.9548 14.4856 13.8589L19.7356 10.3589C19.9288 10.2301 20.0629 10.0298 20.1085 9.80216C20.154 9.57448 20.1072 9.33804 19.9784 9.14484C19.8496 8.95165 19.6494 8.81753 19.4217 8.772C19.194 8.72646 18.9576 8.77323 18.7644 8.90203V8.89656ZM17.1095 19.3966C16.1875 18.783 15.3059 18.375 14 18.375C12.6941 18.375 11.8125 18.783 10.8905 19.3966C10.7017 19.5269 10.5717 19.7262 10.5284 19.9515C10.4852 20.1768 10.5321 20.4101 10.6592 20.6011C10.7862 20.7922 10.9832 20.9256 11.2077 20.9728C11.4323 21.02 11.6663 20.9771 11.8595 20.8534C12.5705 20.3809 13.125 20.125 14 20.125C14.875 20.125 15.4295 20.3809 16.1405 20.8534C16.2361 20.9195 16.3439 20.9658 16.4576 20.9897C16.5713 21.0136 16.6886 21.0147 16.8027 20.9928C16.9168 20.9708 17.0254 20.9264 17.1222 20.8621C17.2189 20.7978 17.3019 20.7148 17.3663 20.6181C17.4306 20.5213 17.4751 20.4127 17.497 20.2986C17.5189 20.1845 17.5179 20.0672 17.494 19.9535C17.4701 19.8398 17.4238 19.732 17.3578 19.6363C17.2918 19.5407 17.2074 19.4592 17.1095 19.3966Z" fill="#2B64BA"/>
</svg>
