<svg width="28" height="28" viewBox="0 0 28 28" fill="none" xmlns="http://www.w3.org/2000/svg">
<path d="M14 2.625C11.7502 2.625 9.551 3.29213 7.68039 4.54203C5.80978 5.79193 4.35182 7.56847 3.49088 9.64698C2.62993 11.7255 2.40467 14.0126 2.84357 16.2192C3.28248 18.4257 4.36584 20.4525 5.95667 22.0433C7.54749 23.6342 9.57432 24.7175 11.7809 25.1564C13.9874 25.5953 16.2745 25.3701 18.353 24.5091C20.4315 23.6482 22.2081 22.1902 23.458 20.3196C24.7079 18.449 25.375 16.2498 25.375 14C25.3718 10.9841 24.1724 8.09271 22.0398 5.96018C19.9073 3.82764 17.0159 2.62818 14 2.625ZM14 23.625C12.0964 23.625 10.2355 23.0605 8.65264 22.0029C7.06982 20.9453 5.83616 19.4421 5.10766 17.6833C4.37917 15.9246 4.18856 13.9893 4.55995 12.1223C4.93133 10.2552 5.84802 8.54018 7.1941 7.1941C8.54018 5.84802 10.2552 4.93132 12.1223 4.55994C13.9893 4.18856 15.9246 4.37917 17.6833 5.10766C19.4421 5.83615 20.9453 7.06981 22.0029 8.65264C23.0605 10.2355 23.625 12.0964 23.625 14C23.6221 16.5518 22.6071 18.9983 20.8027 20.8027C18.9983 22.6071 16.5518 23.6221 14 23.625ZM8.75 11.8125C8.75 11.5529 8.82698 11.2992 8.9712 11.0833C9.11542 10.8675 9.3204 10.6992 9.56023 10.5999C9.80006 10.5006 10.064 10.4746 10.3186 10.5252C10.5732 10.5759 10.807 10.7009 10.9906 10.8844C11.1741 11.068 11.2991 11.3018 11.3498 11.5564C11.4004 11.811 11.3744 12.0749 11.2751 12.3148C11.1758 12.5546 11.0075 12.7596 10.7917 12.9038C10.5759 13.048 10.3221 13.125 10.0625 13.125C9.71441 13.125 9.38057 12.9867 9.13443 12.7406C8.88829 12.4944 8.75 12.1606 8.75 11.8125ZM20.125 11.8125C20.125 12.0446 20.0328 12.2671 19.8687 12.4312C19.7046 12.5953 19.4821 12.6875 19.25 12.6875H16.625C16.3929 12.6875 16.1704 12.5953 16.0063 12.4312C15.8422 12.2671 15.75 12.0446 15.75 11.8125C15.75 11.5804 15.8422 11.3579 16.0063 11.1938C16.1704 11.0297 16.3929 10.9375 16.625 10.9375H19.25C19.4821 10.9375 19.7046 11.0297 19.8687 11.1938C20.0328 11.3579 20.125 11.5804 20.125 11.8125ZM19.1319 17.0625C18.0064 19.0083 16.1361 20.125 14 20.125C11.8639 20.125 9.9936 19.0094 8.86704 17.0625C8.80958 16.963 8.7723 16.8531 8.75731 16.7391C8.74232 16.6252 8.74992 16.5094 8.77968 16.3984C8.80944 16.2874 8.86077 16.1833 8.93075 16.0922C9.00072 16.001 9.08797 15.9245 9.1875 15.867C9.28704 15.8096 9.39692 15.7723 9.51087 15.7573C9.62482 15.7423 9.7406 15.7499 9.85161 15.7797C9.96262 15.8094 10.0667 15.8608 10.1579 15.9307C10.249 16.0007 10.3255 16.088 10.383 16.1875C11.1989 17.5995 12.483 18.375 14 18.375C15.517 18.375 16.8011 17.5984 17.6181 16.1875C17.6728 16.0829 17.7481 15.9905 17.8395 15.9158C17.9308 15.8411 18.0363 15.7856 18.1497 15.7527C18.263 15.7199 18.3818 15.7102 18.499 15.7245C18.6161 15.7387 18.7292 15.7765 18.8313 15.8355C18.9335 15.8946 19.0227 15.9737 19.0935 16.0681C19.1643 16.1625 19.2153 16.2703 19.2433 16.3849C19.2714 16.4995 19.276 16.6186 19.2569 16.7351C19.2377 16.8515 19.1952 16.9629 19.1319 17.0625Z" fill="#2B64BA"/>
</svg>
