<svg width="28" height="28" viewBox="0 0 28 28" fill="none" xmlns="http://www.w3.org/2000/svg">
<path d="M21.6103 14.1159L15.9687 12.0312L13.8906 6.38531C13.7676 6.05098 13.5449 5.76245 13.2527 5.55864C12.9605 5.35483 12.6128 5.24555 12.2566 5.24555C11.9003 5.24555 11.5526 5.35483 11.2604 5.55864C10.9682 5.76245 10.7456 6.05098 10.6225 6.38531L8.53124 12.0312L2.8853 14.1094C2.55098 14.2324 2.26244 14.4551 2.05863 14.7473C1.85482 15.0395 1.74554 15.3872 1.74554 15.7434C1.74554 16.0997 1.85482 16.4474 2.05863 16.7396C2.26244 17.0318 2.55098 17.2544 2.8853 17.3775L8.53124 19.4688L10.6094 25.1147C10.7324 25.449 10.9551 25.7375 11.2473 25.9414C11.5395 26.1452 11.8872 26.2544 12.2434 26.2544C12.5997 26.2544 12.9474 26.1452 13.2396 25.9414C13.5318 25.7375 13.7544 25.449 13.8775 25.1147L15.9687 19.4688L21.6147 17.3906C21.949 17.2676 22.2375 17.0449 22.4414 16.7527C22.6452 16.4605 22.7544 16.1128 22.7544 15.7566C22.7544 15.4003 22.6452 15.0526 22.4414 14.7604C22.2375 14.4682 21.949 14.2456 21.6147 14.1225L21.6103 14.1159ZM14.9844 17.9616C14.8656 18.0053 14.7577 18.0744 14.6682 18.1639C14.5787 18.2534 14.5097 18.3612 14.4659 18.48L12.25 24.4836L10.0384 18.4844C9.99473 18.3644 9.92528 18.2554 9.83496 18.165C9.74464 18.0747 9.63564 18.0053 9.51562 17.9616L3.5164 15.75L9.51562 13.5384C9.63564 13.4947 9.74464 13.4253 9.83496 13.335C9.92528 13.2446 9.99473 13.1356 10.0384 13.0156L12.25 7.01641L14.4616 13.0156C14.5053 13.1344 14.5743 13.2423 14.6639 13.3318C14.7534 13.4213 14.8612 13.4903 14.98 13.5341L20.9836 15.75L14.9844 17.9616ZM15.75 4.375C15.75 4.14294 15.8422 3.92038 16.0063 3.75628C16.1704 3.59219 16.3929 3.5 16.625 3.5H18.375V1.75C18.375 1.51794 18.4672 1.29538 18.6313 1.13128C18.7954 0.967187 19.0179 0.875 19.25 0.875C19.4821 0.875 19.7046 0.967187 19.8687 1.13128C20.0328 1.29538 20.125 1.51794 20.125 1.75V3.5H21.875C22.1071 3.5 22.3296 3.59219 22.4937 3.75628C22.6578 3.92038 22.75 4.14294 22.75 4.375C22.75 4.60706 22.6578 4.82962 22.4937 4.99372C22.3296 5.15781 22.1071 5.25 21.875 5.25H20.125V7C20.125 7.23206 20.0328 7.45462 19.8687 7.61872C19.7046 7.78281 19.4821 7.875 19.25 7.875C19.0179 7.875 18.7954 7.78281 18.6313 7.61872C18.4672 7.45462 18.375 7.23206 18.375 7V5.25H16.625C16.3929 5.25 16.1704 5.15781 16.0063 4.99372C15.8422 4.82962 15.75 4.60706 15.75 4.375ZM27.125 9.625C27.125 9.85706 27.0328 10.0796 26.8687 10.2437C26.7046 10.4078 26.4821 10.5 26.25 10.5H25.375V11.375C25.375 11.6071 25.2828 11.8296 25.1187 11.9937C24.9546 12.1578 24.7321 12.25 24.5 12.25C24.2679 12.25 24.0454 12.1578 23.8813 11.9937C23.7172 11.8296 23.625 11.6071 23.625 11.375V10.5H22.75C22.5179 10.5 22.2954 10.4078 22.1313 10.2437C21.9672 10.0796 21.875 9.85706 21.875 9.625C21.875 9.39294 21.9672 9.17038 22.1313 9.00628C22.2954 8.84219 22.5179 8.75 22.75 8.75H23.625V7.875C23.625 7.64294 23.7172 7.42038 23.8813 7.25628C24.0454 7.09219 24.2679 7 24.5 7C24.7321 7 24.9546 7.09219 25.1187 7.25628C25.2828 7.42038 25.375 7.64294 25.375 7.875V8.75H26.25C26.4821 8.75 26.7046 8.84219 26.8687 9.00628C27.0328 9.17038 27.125 9.39294 27.125 9.625Z" fill="#2B64BA"/>
</svg>
