<svg width="28" height="28" viewBox="0 0 28 28" fill="none" xmlns="http://www.w3.org/2000/svg">
<path d="M25.1015 12.3594L18.1627 9.83722L15.6405 2.89847C15.5162 2.56356 15.2924 2.27472 14.9991 2.07075C14.7058 1.86678 14.3571 1.75745 13.9999 1.75745C13.6427 1.75745 13.294 1.86678 13.0007 2.07075C12.7074 2.27472 12.4836 2.56356 12.3593 2.89847L9.8371 9.83722L2.89835 12.3594C2.56344 12.4837 2.2746 12.7076 2.07063 13.0008C1.86665 13.2941 1.75732 13.6428 1.75732 14C1.75732 14.3573 1.86665 14.706 2.07063 14.9992C2.2746 15.2925 2.56344 15.5163 2.89835 15.6407L9.8371 18.1639L12.3593 25.1016C12.4836 25.4365 12.7074 25.7253 13.0007 25.9293C13.294 26.1333 13.6427 26.2426 13.9999 26.2426C14.3571 26.2426 14.7058 26.1333 14.9991 25.9293C15.2924 25.7253 15.5162 25.4365 15.6405 25.1016L18.1638 18.1628L25.1015 15.6407C25.4364 15.5163 25.7252 15.2925 25.9292 14.9992C26.1332 14.706 26.2425 14.3573 26.2425 14C26.2425 13.6428 26.1332 13.2941 25.9292 13.0008C25.7252 12.7076 25.4364 12.4837 25.1015 12.3594ZM17.1805 16.6578C17.0605 16.7016 16.9515 16.771 16.8612 16.8613C16.7709 16.9516 16.7014 17.0606 16.6577 17.1807L13.9999 24.4891L11.3421 17.1807C11.2984 17.0606 11.2289 16.9516 11.1386 16.8613C11.0483 16.771 10.9393 16.7016 10.8193 16.6578L3.51085 14L10.8193 11.3422C10.9393 11.2985 11.0483 11.2291 11.1386 11.1388C11.2289 11.0484 11.2984 10.9394 11.3421 10.8194L13.9999 3.51097L16.6577 10.8194C16.7014 10.9394 16.7709 11.0484 16.8612 11.1388C16.9515 11.2291 17.0605 11.2985 17.1805 11.3422L24.489 14L17.1805 16.6578Z" fill="#2B64BA"/>
</svg>
