<svg width="28" height="28" viewBox="0 0 28 28" fill="none" xmlns="http://www.w3.org/2000/svg">
<path d="M28 14.875C28 15.107 27.9078 15.3296 27.7437 15.4937C27.5796 15.6578 27.357 15.75 27.125 15.75H21.875C21.6429 15.75 21.4203 15.6578 21.2562 15.4937C21.0921 15.3296 21 15.107 21 14.875C21 14.6429 21.0921 14.4204 21.2562 14.2563C21.4203 14.0922 21.6429 14 21.875 14H27.125C27.357 14 27.5796 14.0922 27.7437 14.2563C27.9078 14.4204 28 14.6429 28 14.875ZM21.6704 21.3117C21.8198 21.4895 21.8925 21.7194 21.8724 21.9508C21.8523 22.1821 21.7411 22.3961 21.5632 22.5455C21.3854 22.6948 21.1555 22.7675 20.9242 22.7474C20.6928 22.7273 20.4789 22.6161 20.3295 22.4383C18.1289 19.8176 15.1036 18.375 11.8125 18.375C8.52137 18.375 5.49605 19.8176 3.29543 22.4383C3.14604 22.6159 2.93218 22.727 2.70091 22.747C2.46964 22.767 2.2399 22.6943 2.06223 22.5449C1.88455 22.3955 1.7735 22.1817 1.7535 21.9504C1.7335 21.7191 1.80619 21.4894 1.95559 21.3117C3.58965 19.367 5.62184 17.9856 7.88043 17.2462C6.50876 16.3919 5.45265 15.1141 4.87189 13.6061C4.29112 12.0981 4.21729 10.442 4.66158 8.88829C5.10586 7.3346 6.04408 5.96788 7.33429 4.99489C8.6245 4.02191 10.1965 3.49561 11.8125 3.49561C13.4284 3.49561 15.0004 4.02191 16.2906 4.99489C17.5808 5.96788 18.5191 7.3346 18.9633 8.88829C19.4076 10.442 19.3338 12.0981 18.753 13.6061C18.1723 15.1141 17.1162 16.3919 15.7445 17.2462C18.0031 17.9856 20.0353 19.367 21.6704 21.3117ZM11.8125 16.625C12.9373 16.625 14.037 16.2914 14.9723 15.6665C15.9076 15.0415 16.6366 14.1532 17.067 13.114C17.4975 12.0747 17.6101 10.9312 17.3907 9.8279C17.1712 8.72464 16.6295 7.71122 15.8341 6.91581C15.0387 6.1204 14.0253 5.57872 12.922 5.35926C11.8188 5.13981 10.6752 5.25244 9.63595 5.68291C8.59669 6.11339 7.70843 6.84237 7.08348 7.77767C6.45853 8.71298 6.12496 9.8126 6.12496 10.9375C6.1267 12.4454 6.72647 13.891 7.79271 14.9572C8.85895 16.0235 10.3046 16.6232 11.8125 16.625Z" fill="#2B64BA"/>
</svg>
